<svg width="393" height="852" viewBox="0 0 393 852" fill="none" xmlns="http://www.w3.org/2000/svg">
<rect width="393" height="852" fill="#FEBE14"/>
<rect x="60" y="704" width="279" height="56" rx="16" fill="#A40606"/>
<path d="M173.207 741V724.2H175.775L186.311 737.136H185.039V724.2H188.135V741H185.567L175.031 728.064H176.303V741H173.207ZM198.093 741.168C196.669 741.168 195.421 740.888 194.349 740.328C193.293 739.752 192.469 738.968 191.877 737.976C191.301 736.984 191.013 735.856 191.013 734.592C191.013 733.312 191.293 732.184 191.853 731.208C192.429 730.216 193.213 729.44 194.205 728.88C195.213 728.32 196.357 728.04 197.637 728.04C198.885 728.04 199.997 728.312 200.973 728.856C201.949 729.4 202.717 730.168 203.277 731.16C203.837 732.152 204.117 733.32 204.117 734.664C204.117 734.792 204.109 734.936 204.093 735.096C204.093 735.256 204.085 735.408 204.069 735.552H193.389V733.56H202.485L201.309 734.184C201.325 733.448 201.173 732.8 200.853 732.24C200.533 731.68 200.093 731.24 199.533 730.92C198.989 730.6 198.357 730.44 197.637 730.44C196.901 730.44 196.253 730.6 195.693 730.92C195.149 731.24 194.717 731.688 194.397 732.264C194.093 732.824 193.941 733.488 193.941 734.256V734.736C193.941 735.504 194.117 736.184 194.469 736.776C194.821 737.368 195.317 737.824 195.957 738.144C196.597 738.464 197.333 738.624 198.165 738.624C198.885 738.624 199.533 738.512 200.109 738.288C200.685 738.064 201.197 737.712 201.645 737.232L203.253 739.08C202.677 739.752 201.949 740.272 201.069 740.64C200.205 740.992 199.213 741.168 198.093 741.168ZM204.615 741L210.255 733.656L210.207 735.264L204.831 728.184H208.167L211.935 733.224H210.663L214.455 728.184H217.695L212.271 735.264L212.295 733.656L217.911 741H214.527L210.567 735.648L211.815 735.816L207.927 741H204.615ZM224.669 741.168C223.261 741.168 222.173 740.808 221.405 740.088C220.637 739.352 220.253 738.272 220.253 736.848V725.352H223.253V736.776C223.253 737.384 223.405 737.856 223.709 738.192C224.029 738.528 224.469 738.696 225.029 738.696C225.701 738.696 226.261 738.52 226.709 738.168L227.549 740.304C227.197 740.592 226.765 740.808 226.253 740.952C225.741 741.096 225.213 741.168 224.669 741.168ZM218.141 730.68V728.28H226.685V730.68H218.141Z" fill="white"/>
<path d="M168.531 605V588.2H171.099L181.635 601.136H180.363V588.2H183.459V605H180.891L170.355 592.064H171.627V605H168.531ZM195.553 605.24C194.241 605.24 193.033 605.024 191.929 604.592C190.825 604.16 189.865 603.56 189.049 602.792C188.233 602.008 187.601 601.096 187.153 600.056C186.705 599 186.481 597.848 186.481 596.6C186.481 595.352 186.705 594.208 187.153 593.168C187.601 592.112 188.233 591.2 189.049 590.432C189.865 589.648 190.825 589.04 191.929 588.608C193.033 588.176 194.233 587.96 195.529 587.96C196.841 587.96 198.041 588.176 199.129 588.608C200.233 589.04 201.193 589.648 202.009 590.432C202.825 591.2 203.457 592.112 203.905 593.168C204.353 594.208 204.577 595.352 204.577 596.6C204.577 597.848 204.353 599 203.905 600.056C203.457 601.112 202.825 602.024 202.009 602.792C201.193 603.56 200.233 604.16 199.129 604.592C198.041 605.024 196.849 605.24 195.553 605.24ZM195.529 602.504C196.377 602.504 197.161 602.36 197.881 602.072C198.601 601.784 199.225 601.376 199.753 600.848C200.281 600.304 200.689 599.68 200.977 598.976C201.281 598.256 201.433 597.464 201.433 596.6C201.433 595.736 201.281 594.952 200.977 594.248C200.689 593.528 200.281 592.904 199.753 592.376C199.225 591.832 198.601 591.416 197.881 591.128C197.161 590.84 196.377 590.696 195.529 590.696C194.681 590.696 193.897 590.84 193.177 591.128C192.473 591.416 191.849 591.832 191.305 592.376C190.777 592.904 190.361 593.528 190.057 594.248C189.769 594.952 189.625 595.736 189.625 596.6C189.625 597.448 189.769 598.232 190.057 598.952C190.361 599.672 190.777 600.304 191.305 600.848C191.833 601.376 192.457 601.784 193.177 602.072C193.897 602.36 194.681 602.504 195.529 602.504ZM207.604 605V588.2H214.516C216.004 588.2 217.276 588.44 218.332 588.92C219.404 589.4 220.228 590.088 220.804 590.984C221.38 591.88 221.668 592.944 221.668 594.176C221.668 595.408 221.38 596.472 220.804 597.368C220.228 598.264 219.404 598.952 218.332 599.432C217.276 599.912 216.004 600.152 214.516 600.152H209.332L210.724 598.688V605H207.604ZM210.724 599.024L209.332 597.512H214.372C215.748 597.512 216.78 597.224 217.468 596.648C218.172 596.056 218.524 595.232 218.524 594.176C218.524 593.104 218.172 592.28 217.468 591.704C216.78 591.128 215.748 590.84 214.372 590.84H209.332L210.724 589.304V599.024ZM227.383 595.184H235.735V597.752H227.383V595.184ZM227.623 602.384H237.103V605H224.503V588.2H236.767V590.816H227.623V602.384ZM240.205 599.432L239.629 588.2H243.181L242.581 599.432H240.205ZM241.405 605.168C240.845 605.168 240.381 604.984 240.013 604.616C239.645 604.248 239.461 603.808 239.461 603.296C239.461 602.784 239.645 602.352 240.013 602C240.381 601.632 240.845 601.448 241.405 601.448C241.965 601.448 242.421 601.632 242.773 602C243.125 602.352 243.301 602.784 243.301 603.296C243.301 603.808 243.125 604.248 242.773 604.616C242.421 604.984 241.965 605.168 241.405 605.168ZM68.3727 637L63.7327 623H66.4327L70.5727 635.66H69.2327L73.5327 623H75.9327L80.1127 635.66H78.8127L83.0527 623H85.5327L80.8927 637H78.1327L74.3127 625.58H75.0327L71.1527 637H68.3727ZM91.3501 637.14C90.1634 637.14 89.1234 636.907 88.2301 636.44C87.3501 635.96 86.6634 635.307 86.1701 634.48C85.6901 633.653 85.4501 632.713 85.4501 631.66C85.4501 630.593 85.6834 629.653 86.1501 628.84C86.6301 628.013 87.2834 627.367 88.1101 626.9C88.9501 626.433 89.9034 626.2 90.9701 626.2C92.0101 626.2 92.9367 626.427 93.7501 626.88C94.5634 627.333 95.2034 627.973 95.6701 628.8C96.1367 629.627 96.3701 630.6 96.3701 631.72C96.3701 631.827 96.3634 631.947 96.3501 632.08C96.3501 632.213 96.3434 632.34 96.3301 632.46H87.4301V630.8H95.0101L94.0301 631.32C94.0434 630.707 93.9167 630.167 93.6501 629.7C93.3834 629.233 93.0167 628.867 92.5501 628.6C92.0967 628.333 91.5701 628.2 90.9701 628.2C90.3567 628.2 89.8167 628.333 89.3501 628.6C88.8967 628.867 88.5367 629.24 88.2701 629.72C88.0167 630.187 87.8901 630.74 87.8901 631.38V631.78C87.8901 632.42 88.0367 632.987 88.3301 633.48C88.6234 633.973 89.0367 634.353 89.5701 634.62C90.1034 634.887 90.7167 635.02 91.4101 635.02C92.0101 635.02 92.5501 634.927 93.0301 634.74C93.5101 634.553 93.9367 634.26 94.3101 633.86L95.6501 635.4C95.1701 635.96 94.5634 636.393 93.8301 636.7C93.1101 636.993 92.2834 637.14 91.3501 637.14ZM109.799 626.2C110.652 626.2 111.412 626.367 112.079 626.7C112.759 627.033 113.292 627.547 113.679 628.24C114.065 628.92 114.259 629.8 114.259 630.88V637H111.759V631.2C111.759 630.253 111.532 629.547 111.079 629.08C110.639 628.613 110.019 628.38 109.219 628.38C108.632 628.38 108.112 628.5 107.659 628.74C107.205 628.98 106.852 629.34 106.599 629.82C106.359 630.287 106.239 630.88 106.239 631.6V637H103.739V622.16H106.239V629.2L105.699 628.32C106.072 627.64 106.612 627.12 107.319 626.76C108.039 626.387 108.865 626.2 109.799 626.2ZM123.73 637V634.84L123.59 634.38V630.6C123.59 629.867 123.37 629.3 122.93 628.9C122.49 628.487 121.824 628.28 120.93 628.28C120.33 628.28 119.737 628.373 119.15 628.56C118.577 628.747 118.09 629.007 117.69 629.34L116.71 627.52C117.284 627.08 117.964 626.753 118.75 626.54C119.55 626.313 120.377 626.2 121.23 626.2C122.777 626.2 123.97 626.573 124.81 627.32C125.664 628.053 126.09 629.193 126.09 630.74V637H123.73ZM120.37 637.14C119.57 637.14 118.87 637.007 118.27 636.74C117.67 636.46 117.204 636.08 116.87 635.6C116.55 635.107 116.39 634.553 116.39 633.94C116.39 633.34 116.53 632.8 116.81 632.32C117.104 631.84 117.577 631.46 118.23 631.18C118.884 630.9 119.75 630.76 120.83 630.76H123.93V632.42H121.01C120.157 632.42 119.584 632.56 119.29 632.84C118.997 633.107 118.85 633.44 118.85 633.84C118.85 634.293 119.03 634.653 119.39 634.92C119.75 635.187 120.25 635.32 120.89 635.32C121.504 635.32 122.05 635.18 122.53 634.9C123.024 634.62 123.377 634.207 123.59 633.66L124.01 635.16C123.77 635.787 123.337 636.273 122.71 636.62C122.097 636.967 121.317 637.14 120.37 637.14ZM135.079 626.2C135.932 626.2 136.692 626.367 137.359 626.7C138.039 627.033 138.572 627.547 138.959 628.24C139.345 628.92 139.539 629.8 139.539 630.88V637H137.039V631.2C137.039 630.253 136.812 629.547 136.359 629.08C135.919 628.613 135.299 628.38 134.499 628.38C133.912 628.38 133.392 628.5 132.939 628.74C132.485 628.98 132.132 629.34 131.879 629.82C131.639 630.287 131.519 630.88 131.519 631.6V637H129.019V626.32H131.399V629.2L130.979 628.32C131.352 627.64 131.892 627.12 132.599 626.76C133.319 626.387 134.145 626.2 135.079 626.2ZM146.97 637.14C145.943 637.14 145.016 636.913 144.19 636.46C143.376 635.993 142.736 635.353 142.27 634.54C141.803 633.727 141.57 632.767 141.57 631.66C141.57 630.553 141.803 629.593 142.27 628.78C142.736 627.967 143.376 627.333 144.19 626.88C145.016 626.427 145.943 626.2 146.97 626.2C147.863 626.2 148.663 626.4 149.37 626.8C150.076 627.187 150.636 627.78 151.05 628.58C151.463 629.38 151.67 630.407 151.67 631.66C151.67 632.9 151.47 633.927 151.07 634.74C150.67 635.54 150.116 636.14 149.41 636.54C148.703 636.94 147.89 637.14 146.97 637.14ZM147.27 635C147.87 635 148.403 634.867 148.87 634.6C149.35 634.333 149.73 633.947 150.01 633.44C150.303 632.933 150.45 632.34 150.45 631.66C150.45 630.967 150.303 630.373 150.01 629.88C149.73 629.373 149.35 628.987 148.87 628.72C148.403 628.453 147.87 628.32 147.27 628.32C146.67 628.32 146.13 628.453 145.65 628.72C145.183 628.987 144.803 629.373 144.51 629.88C144.23 630.373 144.09 630.967 144.09 631.66C144.09 632.34 144.23 632.933 144.51 633.44C144.803 633.947 145.183 634.333 145.65 634.6C146.13 634.867 146.67 635 147.27 635ZM150.51 637V634.48L150.61 631.64L150.41 628.8V622.16H152.89V637H150.51ZM155.9 637V622.16H158.4V637H155.9ZM166.421 637.14C165.235 637.14 164.195 636.907 163.301 636.44C162.421 635.96 161.735 635.307 161.241 634.48C160.761 633.653 160.521 632.713 160.521 631.66C160.521 630.593 160.755 629.653 161.221 628.84C161.701 628.013 162.355 627.367 163.181 626.9C164.021 626.433 164.975 626.2 166.041 626.2C167.081 626.2 168.008 626.427 168.821 626.88C169.635 627.333 170.275 627.973 170.741 628.8C171.208 629.627 171.441 630.6 171.441 631.72C171.441 631.827 171.435 631.947 171.421 632.08C171.421 632.213 171.415 632.34 171.401 632.46H162.501V630.8H170.081L169.101 631.32C169.115 630.707 168.988 630.167 168.721 629.7C168.455 629.233 168.088 628.867 167.621 628.6C167.168 628.333 166.641 628.2 166.041 628.2C165.428 628.2 164.888 628.333 164.421 628.6C163.968 628.867 163.608 629.24 163.341 629.72C163.088 630.187 162.961 630.74 162.961 631.38V631.78C162.961 632.42 163.108 632.987 163.401 633.48C163.695 633.973 164.108 634.353 164.641 634.62C165.175 634.887 165.788 635.02 166.481 635.02C167.081 635.02 167.621 634.927 168.101 634.74C168.581 634.553 169.008 634.26 169.381 633.86L170.721 635.4C170.241 635.96 169.635 636.393 168.901 636.7C168.181 636.993 167.355 637.14 166.421 637.14ZM184.73 637.14C183.863 637.14 183.07 636.94 182.35 636.54C181.643 636.14 181.077 635.54 180.65 634.74C180.237 633.927 180.03 632.9 180.03 631.66C180.03 630.407 180.23 629.38 180.63 628.58C181.043 627.78 181.603 627.187 182.31 626.8C183.017 626.4 183.823 626.2 184.73 626.2C185.783 626.2 186.71 626.427 187.51 626.88C188.323 627.333 188.963 627.967 189.43 628.78C189.91 629.593 190.15 630.553 190.15 631.66C190.15 632.767 189.91 633.733 189.43 634.56C188.963 635.373 188.323 636.007 187.51 636.46C186.71 636.913 185.783 637.14 184.73 637.14ZM178.81 640.88V626.32H181.19V628.84L181.11 631.68L181.31 634.52V640.88H178.81ZM184.45 635C185.05 635 185.583 634.867 186.05 634.6C186.53 634.333 186.91 633.947 187.19 633.44C187.47 632.933 187.61 632.34 187.61 631.66C187.61 630.967 187.47 630.373 187.19 629.88C186.91 629.373 186.53 628.987 186.05 628.72C185.583 628.453 185.05 628.32 184.45 628.32C183.85 628.32 183.31 628.453 182.83 628.72C182.35 628.987 181.97 629.373 181.69 629.88C181.41 630.373 181.27 630.967 181.27 631.66C181.27 632.34 181.41 632.933 181.69 633.44C181.97 633.947 182.35 634.333 182.83 634.6C183.31 634.867 183.85 635 184.45 635ZM198.684 637V634.84L198.544 634.38V630.6C198.544 629.867 198.324 629.3 197.884 628.9C197.444 628.487 196.778 628.28 195.884 628.28C195.284 628.28 194.691 628.373 194.104 628.56C193.531 628.747 193.044 629.007 192.644 629.34L191.664 627.52C192.238 627.08 192.918 626.753 193.704 626.54C194.504 626.313 195.331 626.2 196.184 626.2C197.731 626.2 198.924 626.573 199.764 627.32C200.618 628.053 201.044 629.193 201.044 630.74V637H198.684ZM195.324 637.14C194.524 637.14 193.824 637.007 193.224 636.74C192.624 636.46 192.158 636.08 191.824 635.6C191.504 635.107 191.344 634.553 191.344 633.94C191.344 633.34 191.484 632.8 191.764 632.32C192.058 631.84 192.531 631.46 193.184 631.18C193.838 630.9 194.704 630.76 195.784 630.76H198.884V632.42H195.964C195.111 632.42 194.538 632.56 194.244 632.84C193.951 633.107 193.804 633.44 193.804 633.84C193.804 634.293 193.984 634.653 194.344 634.92C194.704 635.187 195.204 635.32 195.844 635.32C196.458 635.32 197.004 635.18 197.484 634.9C197.978 634.62 198.331 634.207 198.544 633.66L198.964 635.16C198.724 635.787 198.291 636.273 197.664 636.62C197.051 636.967 196.271 637.14 195.324 637.14ZM203.973 637V626.32H206.353V629.26L206.073 628.4C206.393 627.68 206.893 627.133 207.573 626.76C208.266 626.387 209.126 626.2 210.153 626.2V628.58C210.046 628.553 209.946 628.54 209.853 628.54C209.759 628.527 209.666 628.52 209.573 628.52C208.626 628.52 207.873 628.8 207.313 629.36C206.753 629.907 206.473 630.727 206.473 631.82V637H203.973ZM214.034 634.62L214.094 631.48L219.674 626.32H222.674L217.934 631.08L216.614 632.18L214.034 634.62ZM211.994 637V622.16H214.494V637H211.994ZM220.054 637L216.154 632.18L217.734 630.18L223.094 637H220.054ZM224.428 637V626.32H226.928V637H224.428ZM225.688 624.56C225.222 624.56 224.835 624.413 224.528 624.12C224.235 623.827 224.088 623.473 224.088 623.06C224.088 622.633 224.235 622.28 224.528 622C224.835 621.707 225.222 621.56 225.688 621.56C226.155 621.56 226.535 621.7 226.828 621.98C227.135 622.247 227.288 622.587 227.288 623C227.288 623.44 227.142 623.813 226.848 624.12C226.555 624.413 226.168 624.56 225.688 624.56ZM235.99 626.2C236.843 626.2 237.603 626.367 238.27 626.7C238.95 627.033 239.483 627.547 239.87 628.24C240.256 628.92 240.45 629.8 240.45 630.88V637H237.95V631.2C237.95 630.253 237.723 629.547 237.27 629.08C236.83 628.613 236.21 628.38 235.41 628.38C234.823 628.38 234.303 628.5 233.85 628.74C233.396 628.98 233.043 629.34 232.79 629.82C232.55 630.287 232.43 630.88 232.43 631.6V637H229.93V626.32H232.31V629.2L231.89 628.32C232.263 627.64 232.803 627.12 233.51 626.76C234.23 626.387 235.056 626.2 235.99 626.2ZM248.201 641.02C247.214 641.02 246.247 640.887 245.301 640.62C244.367 640.367 243.601 639.993 243.001 639.5L244.121 637.62C244.587 638.007 245.174 638.313 245.881 638.54C246.601 638.78 247.327 638.9 248.061 638.9C249.234 638.9 250.094 638.627 250.641 638.08C251.187 637.547 251.461 636.74 251.461 635.66V633.76L251.661 631.34L251.581 628.92V626.32H253.961V635.38C253.961 637.313 253.467 638.733 252.481 639.64C251.494 640.56 250.067 641.02 248.201 641.02ZM247.881 636.52C246.867 636.52 245.947 636.307 245.121 635.88C244.307 635.44 243.661 634.833 243.181 634.06C242.714 633.287 242.481 632.38 242.481 631.34C242.481 630.313 242.714 629.413 243.181 628.64C243.661 627.867 244.307 627.267 245.121 626.84C245.947 626.413 246.867 626.2 247.881 626.2C248.787 626.2 249.601 626.38 250.321 626.74C251.041 627.1 251.614 627.66 252.041 628.42C252.481 629.18 252.701 630.153 252.701 631.34C252.701 632.527 252.481 633.507 252.041 634.28C251.614 635.04 251.041 635.607 250.321 635.98C249.601 636.34 248.787 636.52 247.881 636.52ZM248.261 634.4C248.887 634.4 249.447 634.273 249.941 634.02C250.434 633.753 250.814 633.393 251.081 632.94C251.361 632.473 251.501 631.94 251.501 631.34C251.501 630.74 251.361 630.213 251.081 629.76C250.814 629.293 250.434 628.94 249.941 628.7C249.447 628.447 248.887 628.32 248.261 628.32C247.634 628.32 247.067 628.447 246.561 628.7C246.067 628.94 245.681 629.293 245.401 629.76C245.134 630.213 245.001 630.74 245.001 631.34C245.001 631.94 245.134 632.473 245.401 632.94C245.681 633.393 246.067 633.753 246.561 634.02C247.067 634.273 247.634 634.4 248.261 634.4ZM262.215 637V626.32H264.595V629.26L264.315 628.4C264.635 627.68 265.135 627.133 265.815 626.76C266.508 626.387 267.368 626.2 268.395 626.2V628.58C268.288 628.553 268.188 628.54 268.095 628.54C268.001 628.527 267.908 628.52 267.815 628.52C266.868 628.52 266.115 628.8 265.555 629.36C264.995 629.907 264.715 630.727 264.715 631.82V637H262.215ZM275.158 637.14C273.971 637.14 272.931 636.907 272.038 636.44C271.158 635.96 270.471 635.307 269.978 634.48C269.498 633.653 269.258 632.713 269.258 631.66C269.258 630.593 269.491 629.653 269.958 628.84C270.438 628.013 271.091 627.367 271.918 626.9C272.758 626.433 273.711 626.2 274.778 626.2C275.818 626.2 276.744 626.427 277.558 626.88C278.371 627.333 279.011 627.973 279.478 628.8C279.944 629.627 280.178 630.6 280.178 631.72C280.178 631.827 280.171 631.947 280.158 632.08C280.158 632.213 280.151 632.34 280.138 632.46H271.238V630.8H278.818L277.838 631.32C277.851 630.707 277.724 630.167 277.458 629.7C277.191 629.233 276.824 628.867 276.358 628.6C275.904 628.333 275.378 628.2 274.778 628.2C274.164 628.2 273.624 628.333 273.158 628.6C272.704 628.867 272.344 629.24 272.078 629.72C271.824 630.187 271.698 630.74 271.698 631.38V631.78C271.698 632.42 271.844 632.987 272.138 633.48C272.431 633.973 272.844 634.353 273.378 634.62C273.911 634.887 274.524 635.02 275.218 635.02C275.818 635.02 276.358 634.927 276.838 634.74C277.318 634.553 277.744 634.26 278.118 633.86L279.458 635.4C278.978 635.96 278.371 636.393 277.638 636.7C276.918 636.993 276.091 637.14 275.158 637.14ZM286.819 637.14C285.792 637.14 284.866 636.913 284.039 636.46C283.226 636.007 282.586 635.373 282.119 634.56C281.652 633.733 281.419 632.767 281.419 631.66C281.419 630.553 281.652 629.593 282.119 628.78C282.586 627.967 283.226 627.333 284.039 626.88C284.866 626.427 285.792 626.2 286.819 626.2C287.739 626.2 288.546 626.4 289.239 626.8C289.946 627.187 290.499 627.78 290.899 628.58C291.312 629.38 291.519 630.407 291.519 631.66C291.519 632.9 291.306 633.927 290.879 634.74C290.466 635.54 289.906 636.14 289.199 636.54C288.492 636.94 287.699 637.14 286.819 637.14ZM287.099 635C287.699 635 288.239 634.867 288.719 634.6C289.199 634.333 289.579 633.947 289.859 633.44C290.139 632.933 290.279 632.34 290.279 631.66C290.279 630.967 290.139 630.373 289.859 629.88C289.579 629.373 289.199 628.987 288.719 628.72C288.239 628.453 287.699 628.32 287.099 628.32C286.499 628.32 285.959 628.453 285.479 628.72C285.012 628.987 284.639 629.373 284.359 629.88C284.079 630.373 283.939 630.967 283.939 631.66C283.939 632.34 284.079 632.933 284.359 633.44C284.639 633.947 285.012 634.333 285.479 634.6C285.959 634.867 286.499 635 287.099 635ZM290.239 640.88V634.52L290.439 631.68L290.359 628.84V626.32H292.739V640.88H290.239ZM300.25 637.14C299.343 637.14 298.543 636.973 297.85 636.64C297.157 636.293 296.617 635.773 296.23 635.08C295.843 634.373 295.65 633.487 295.65 632.42V626.32H298.15V632.08C298.15 633.04 298.363 633.76 298.79 634.24C299.23 634.707 299.85 634.94 300.65 634.94C301.237 634.94 301.743 634.82 302.17 634.58C302.61 634.34 302.95 633.98 303.19 633.5C303.443 633.02 303.57 632.427 303.57 631.72V626.32H306.07V637H303.69V634.12L304.11 635C303.75 635.693 303.223 636.227 302.53 636.6C301.837 636.96 301.077 637.14 300.25 637.14ZM314.083 637.14C312.897 637.14 311.857 636.907 310.963 636.44C310.083 635.96 309.397 635.307 308.903 634.48C308.423 633.653 308.183 632.713 308.183 631.66C308.183 630.593 308.417 629.653 308.883 628.84C309.363 628.013 310.017 627.367 310.843 626.9C311.683 626.433 312.637 626.2 313.703 626.2C314.743 626.2 315.67 626.427 316.483 626.88C317.297 627.333 317.937 627.973 318.403 628.8C318.87 629.627 319.103 630.6 319.103 631.72C319.103 631.827 319.097 631.947 319.083 632.08C319.083 632.213 319.077 632.34 319.063 632.46H310.163V630.8H317.743L316.763 631.32C316.777 630.707 316.65 630.167 316.383 629.7C316.117 629.233 315.75 628.867 315.283 628.6C314.83 628.333 314.303 628.2 313.703 628.2C313.09 628.2 312.55 628.333 312.083 628.6C311.63 628.867 311.27 629.24 311.003 629.72C310.75 630.187 310.623 630.74 310.623 631.38V631.78C310.623 632.42 310.77 632.987 311.063 633.48C311.357 633.973 311.77 634.353 312.303 634.62C312.837 634.887 313.45 635.02 314.143 635.02C314.743 635.02 315.283 634.927 315.763 634.74C316.243 634.553 316.67 634.26 317.043 633.86L318.383 635.4C317.903 635.96 317.297 636.393 316.563 636.7C315.843 636.993 315.017 637.14 314.083 637.14ZM324.525 637.14C323.631 637.14 322.771 637.027 321.945 636.8C321.131 636.56 320.485 636.273 320.005 635.94L320.965 634.04C321.445 634.347 322.018 634.6 322.685 634.8C323.351 635 324.018 635.1 324.685 635.1C325.471 635.1 326.038 634.993 326.385 634.78C326.745 634.567 326.925 634.28 326.925 633.92C326.925 633.627 326.805 633.407 326.565 633.26C326.325 633.1 326.011 632.98 325.625 632.9C325.238 632.82 324.805 632.747 324.325 632.68C323.858 632.613 323.385 632.527 322.905 632.42C322.438 632.3 322.011 632.133 321.625 631.92C321.238 631.693 320.925 631.393 320.685 631.02C320.445 630.647 320.325 630.153 320.325 629.54C320.325 628.86 320.518 628.273 320.905 627.78C321.291 627.273 321.831 626.887 322.525 626.62C323.231 626.34 324.065 626.2 325.025 626.2C325.745 626.2 326.471 626.28 327.205 626.44C327.938 626.6 328.545 626.827 329.025 627.12L328.065 629.02C327.558 628.713 327.045 628.507 326.525 628.4C326.018 628.28 325.511 628.22 325.005 628.22C324.245 628.22 323.678 628.333 323.305 628.56C322.945 628.787 322.765 629.073 322.765 629.42C322.765 629.74 322.885 629.98 323.125 630.14C323.365 630.3 323.678 630.427 324.065 630.52C324.451 630.613 324.878 630.693 325.345 630.76C325.825 630.813 326.298 630.9 326.765 631.02C327.231 631.14 327.658 631.307 328.045 631.52C328.445 631.72 328.765 632.007 329.005 632.38C329.245 632.753 329.365 633.24 329.365 633.84C329.365 634.507 329.165 635.087 328.765 635.58C328.378 636.073 327.825 636.46 327.105 636.74C326.385 637.007 325.525 637.14 324.525 637.14ZM335.258 637.14C334.084 637.14 333.178 636.84 332.538 636.24C331.898 635.627 331.578 634.727 331.578 633.54V623.96H334.078V633.48C334.078 633.987 334.204 634.38 334.458 634.66C334.724 634.94 335.091 635.08 335.558 635.08C336.118 635.08 336.584 634.933 336.958 634.64L337.658 636.42C337.364 636.66 337.004 636.84 336.578 636.96C336.151 637.08 335.711 637.14 335.258 637.14ZM329.818 628.4V626.4H336.938V628.4H329.818ZM342.734 637.14C341.841 637.14 340.981 637.027 340.154 636.8C339.341 636.56 338.694 636.273 338.214 635.94L339.174 634.04C339.654 634.347 340.228 634.6 340.894 634.8C341.561 635 342.228 635.1 342.894 635.1C343.681 635.1 344.248 634.993 344.594 634.78C344.954 634.567 345.134 634.28 345.134 633.92C345.134 633.627 345.014 633.407 344.774 633.26C344.534 633.1 344.221 632.98 343.834 632.9C343.448 632.82 343.014 632.747 342.534 632.68C342.068 632.613 341.594 632.527 341.114 632.42C340.648 632.3 340.221 632.133 339.834 631.92C339.448 631.693 339.134 631.393 338.894 631.02C338.654 630.647 338.534 630.153 338.534 629.54C338.534 628.86 338.728 628.273 339.114 627.78C339.501 627.273 340.041 626.887 340.734 626.62C341.441 626.34 342.274 626.2 343.234 626.2C343.954 626.2 344.681 626.28 345.414 626.44C346.148 626.6 346.754 626.827 347.234 627.12L346.274 629.02C345.768 628.713 345.254 628.507 344.734 628.4C344.228 628.28 343.721 628.22 343.214 628.22C342.454 628.22 341.888 628.333 341.514 628.56C341.154 628.787 340.974 629.073 340.974 629.42C340.974 629.74 341.094 629.98 341.334 630.14C341.574 630.3 341.888 630.427 342.274 630.52C342.661 630.613 343.088 630.693 343.554 630.76C344.034 630.813 344.508 630.9 344.974 631.02C345.441 631.14 345.868 631.307 346.254 631.52C346.654 631.72 346.974 632.007 347.214 632.38C347.454 632.753 347.574 633.24 347.574 633.84C347.574 634.507 347.374 635.087 346.974 635.58C346.588 636.073 346.034 636.46 345.314 636.74C344.594 637.007 343.734 637.14 342.734 637.14ZM101.776 661.14C100.602 661.14 99.6957 660.84 99.0557 660.24C98.4157 659.627 98.0957 658.727 98.0957 657.54V647.96H100.596V657.48C100.596 657.987 100.722 658.38 100.976 658.66C101.242 658.94 101.609 659.08 102.076 659.08C102.636 659.08 103.102 658.933 103.476 658.64L104.176 660.42C103.882 660.66 103.522 660.84 103.096 660.96C102.669 661.08 102.229 661.14 101.776 661.14ZM96.3357 652.4V650.4H103.456V652.4H96.3357ZM112.012 650.2C112.866 650.2 113.626 650.367 114.292 650.7C114.972 651.033 115.506 651.547 115.892 652.24C116.279 652.92 116.472 653.8 116.472 654.88V661H113.972V655.2C113.972 654.253 113.746 653.547 113.292 653.08C112.852 652.613 112.232 652.38 111.432 652.38C110.846 652.38 110.326 652.5 109.872 652.74C109.419 652.98 109.066 653.34 108.812 653.82C108.572 654.287 108.452 654.88 108.452 655.6V661H105.952V646.16H108.452V653.2L107.912 652.32C108.286 651.64 108.826 651.12 109.532 650.76C110.252 650.387 111.079 650.2 112.012 650.2ZM124.403 661.14C123.217 661.14 122.177 660.907 121.283 660.44C120.403 659.96 119.717 659.307 119.223 658.48C118.743 657.653 118.503 656.713 118.503 655.66C118.503 654.593 118.737 653.653 119.203 652.84C119.683 652.013 120.337 651.367 121.163 650.9C122.003 650.433 122.957 650.2 124.023 650.2C125.063 650.2 125.99 650.427 126.803 650.88C127.617 651.333 128.257 651.973 128.723 652.8C129.19 653.627 129.423 654.6 129.423 655.72C129.423 655.827 129.417 655.947 129.403 656.08C129.403 656.213 129.397 656.34 129.383 656.46H120.483V654.8H128.063L127.083 655.32C127.097 654.707 126.97 654.167 126.703 653.7C126.437 653.233 126.07 652.867 125.603 652.6C125.15 652.333 124.623 652.2 124.023 652.2C123.41 652.2 122.87 652.333 122.403 652.6C121.95 652.867 121.59 653.24 121.323 653.72C121.07 654.187 120.943 654.74 120.943 655.38V655.78C120.943 656.42 121.09 656.987 121.383 657.48C121.677 657.973 122.09 658.353 122.623 658.62C123.157 658.887 123.77 659.02 124.463 659.02C125.063 659.02 125.603 658.927 126.083 658.74C126.563 658.553 126.99 658.26 127.363 657.86L128.703 659.4C128.223 659.96 127.617 660.393 126.883 660.7C126.163 660.993 125.337 661.14 124.403 661.14ZM150.272 650.2C151.125 650.2 151.879 650.367 152.532 650.7C153.199 651.033 153.719 651.547 154.092 652.24C154.465 652.92 154.652 653.8 154.652 654.88V661H152.152V655.2C152.152 654.253 151.945 653.547 151.532 653.08C151.119 652.613 150.525 652.38 149.752 652.38C149.205 652.38 148.719 652.5 148.292 652.74C147.879 652.98 147.552 653.333 147.312 653.8C147.085 654.267 146.972 654.86 146.972 655.58V661H144.472V655.2C144.472 654.253 144.265 653.547 143.852 653.08C143.439 652.613 142.845 652.38 142.072 652.38C141.525 652.38 141.039 652.5 140.612 652.74C140.199 652.98 139.872 653.333 139.632 653.8C139.405 654.267 139.292 654.86 139.292 655.58V661H136.792V650.32H139.172V653.16L138.752 652.32C139.112 651.627 139.632 651.1 140.312 650.74C141.005 650.38 141.792 650.2 142.672 650.2C143.672 650.2 144.539 650.447 145.272 650.94C146.019 651.433 146.512 652.18 146.752 653.18L145.772 652.84C146.119 652.04 146.692 651.4 147.492 650.92C148.292 650.44 149.219 650.2 150.272 650.2ZM162.386 661.14C161.293 661.14 160.32 660.907 159.466 660.44C158.613 659.96 157.94 659.307 157.446 658.48C156.953 657.653 156.706 656.713 156.706 655.66C156.706 654.593 156.953 653.653 157.446 652.84C157.94 652.013 158.613 651.367 159.466 650.9C160.32 650.433 161.293 650.2 162.386 650.2C163.493 650.2 164.473 650.433 165.326 650.9C166.193 651.367 166.866 652.007 167.346 652.82C167.84 653.633 168.086 654.58 168.086 655.66C168.086 656.713 167.84 657.653 167.346 658.48C166.866 659.307 166.193 659.96 165.326 660.44C164.473 660.907 163.493 661.14 162.386 661.14ZM162.386 659C163 659 163.546 658.867 164.026 658.6C164.506 658.333 164.88 657.947 165.146 657.44C165.426 656.933 165.566 656.34 165.566 655.66C165.566 654.967 165.426 654.373 165.146 653.88C164.88 653.373 164.506 652.987 164.026 652.72C163.546 652.453 163.006 652.32 162.406 652.32C161.793 652.32 161.246 652.453 160.766 652.72C160.3 652.987 159.926 653.373 159.646 653.88C159.366 654.373 159.226 654.967 159.226 655.66C159.226 656.34 159.366 656.933 159.646 657.44C159.926 657.947 160.3 658.333 160.766 658.6C161.246 658.867 161.786 659 162.386 659ZM174.717 661.14C173.69 661.14 172.763 660.913 171.937 660.46C171.123 659.993 170.483 659.353 170.017 658.54C169.55 657.727 169.317 656.767 169.317 655.66C169.317 654.553 169.55 653.593 170.017 652.78C170.483 651.967 171.123 651.333 171.937 650.88C172.763 650.427 173.69 650.2 174.717 650.2C175.61 650.2 176.41 650.4 177.117 650.8C177.823 651.187 178.383 651.78 178.797 652.58C179.21 653.38 179.417 654.407 179.417 655.66C179.417 656.9 179.217 657.927 178.817 658.74C178.417 659.54 177.863 660.14 177.157 660.54C176.45 660.94 175.637 661.14 174.717 661.14ZM175.017 659C175.617 659 176.15 658.867 176.617 658.6C177.097 658.333 177.477 657.947 177.757 657.44C178.05 656.933 178.197 656.34 178.197 655.66C178.197 654.967 178.05 654.373 177.757 653.88C177.477 653.373 177.097 652.987 176.617 652.72C176.15 652.453 175.617 652.32 175.017 652.32C174.417 652.32 173.877 652.453 173.397 652.72C172.93 652.987 172.55 653.373 172.257 653.88C171.977 654.373 171.837 654.967 171.837 655.66C171.837 656.34 171.977 656.933 172.257 657.44C172.55 657.947 172.93 658.333 173.397 658.6C173.877 658.867 174.417 659 175.017 659ZM178.257 661V658.48L178.357 655.64L178.157 652.8V646.16H180.637V661H178.257ZM188.667 661.14C187.481 661.14 186.441 660.907 185.547 660.44C184.667 659.96 183.981 659.307 183.487 658.48C183.007 657.653 182.767 656.713 182.767 655.66C182.767 654.593 183.001 653.653 183.467 652.84C183.947 652.013 184.601 651.367 185.427 650.9C186.267 650.433 187.221 650.2 188.287 650.2C189.327 650.2 190.254 650.427 191.067 650.88C191.881 651.333 192.521 651.973 192.987 652.8C193.454 653.627 193.687 654.6 193.687 655.72C193.687 655.827 193.681 655.947 193.667 656.08C193.667 656.213 193.661 656.34 193.647 656.46H184.747V654.8H192.327L191.347 655.32C191.361 654.707 191.234 654.167 190.967 653.7C190.701 653.233 190.334 652.867 189.867 652.6C189.414 652.333 188.887 652.2 188.287 652.2C187.674 652.2 187.134 652.333 186.667 652.6C186.214 652.867 185.854 653.24 185.587 653.72C185.334 654.187 185.207 654.74 185.207 655.38V655.78C185.207 656.42 185.354 656.987 185.647 657.48C185.941 657.973 186.354 658.353 186.887 658.62C187.421 658.887 188.034 659.02 188.727 659.02C189.327 659.02 189.867 658.927 190.347 658.74C190.827 658.553 191.254 658.26 191.627 657.86L192.967 659.4C192.487 659.96 191.881 660.393 191.147 660.7C190.427 660.993 189.601 661.14 188.667 661.14ZM195.809 661V650.32H198.189V653.26L197.909 652.4C198.229 651.68 198.729 651.133 199.409 650.76C200.102 650.387 200.962 650.2 201.989 650.2V652.58C201.882 652.553 201.782 652.54 201.689 652.54C201.595 652.527 201.502 652.52 201.409 652.52C200.462 652.52 199.709 652.8 199.149 653.36C198.589 653.907 198.309 654.727 198.309 655.82V661H195.809ZM209.889 650.2C210.743 650.2 211.503 650.367 212.169 650.7C212.849 651.033 213.383 651.547 213.769 652.24C214.156 652.92 214.349 653.8 214.349 654.88V661H211.849V655.2C211.849 654.253 211.623 653.547 211.169 653.08C210.729 652.613 210.109 652.38 209.309 652.38C208.723 652.38 208.203 652.5 207.749 652.74C207.296 652.98 206.943 653.34 206.689 653.82C206.449 654.287 206.329 654.88 206.329 655.6V661H203.829V650.32H206.209V653.2L205.789 652.32C206.163 651.64 206.703 651.12 207.409 650.76C208.129 650.387 208.956 650.2 209.889 650.2ZM224.848 661L220.928 650.32H223.288L226.648 659.74H225.528L229.048 650.32H231.148L234.568 659.74H233.468L236.928 650.32H239.148L235.208 661H232.808L229.688 652.66H230.428L227.248 661H224.848ZM246.835 661V658.84L246.695 658.38V654.6C246.695 653.867 246.475 653.3 246.035 652.9C245.595 652.487 244.928 652.28 244.035 652.28C243.435 652.28 242.842 652.373 242.255 652.56C241.682 652.747 241.195 653.007 240.795 653.34L239.815 651.52C240.388 651.08 241.068 650.753 241.855 650.54C242.655 650.313 243.482 650.2 244.335 650.2C245.882 650.2 247.075 650.573 247.915 651.32C248.768 652.053 249.195 653.193 249.195 654.74V661H246.835ZM243.475 661.14C242.675 661.14 241.975 661.007 241.375 660.74C240.775 660.46 240.308 660.08 239.975 659.6C239.655 659.107 239.495 658.553 239.495 657.94C239.495 657.34 239.635 656.8 239.915 656.32C240.208 655.84 240.682 655.46 241.335 655.18C241.988 654.9 242.855 654.76 243.935 654.76H247.035V656.42H244.115C243.262 656.42 242.688 656.56 242.395 656.84C242.102 657.107 241.955 657.44 241.955 657.84C241.955 658.293 242.135 658.653 242.495 658.92C242.855 659.187 243.355 659.32 243.995 659.32C244.608 659.32 245.155 659.18 245.635 658.9C246.128 658.62 246.482 658.207 246.695 657.66L247.115 659.16C246.875 659.787 246.442 660.273 245.815 660.62C245.202 660.967 244.422 661.14 243.475 661.14ZM252.808 665.02C252.288 665.02 251.768 664.933 251.248 664.76C250.728 664.587 250.295 664.347 249.948 664.04L250.948 662.2C251.202 662.427 251.488 662.607 251.808 662.74C252.128 662.873 252.455 662.94 252.788 662.94C253.242 662.94 253.608 662.827 253.888 662.6C254.168 662.373 254.428 661.993 254.668 661.46L255.288 660.06L255.488 659.76L259.528 650.32H261.928L256.928 661.86C256.595 662.66 256.222 663.293 255.808 663.76C255.408 664.227 254.955 664.553 254.448 664.74C253.955 664.927 253.408 665.02 252.808 665.02ZM255.008 661.38L250.188 650.32H252.788L256.708 659.54L255.008 661.38ZM274.518 650.2C275.371 650.2 276.131 650.367 276.798 650.7C277.478 651.033 278.011 651.547 278.398 652.24C278.785 652.92 278.978 653.8 278.978 654.88V661H276.478V655.2C276.478 654.253 276.251 653.547 275.798 653.08C275.358 652.613 274.738 652.38 273.938 652.38C273.351 652.38 272.831 652.5 272.378 652.74C271.925 652.98 271.571 653.34 271.318 653.82C271.078 654.287 270.958 654.88 270.958 655.6V661H268.458V650.32H270.838V653.2L270.418 652.32C270.791 651.64 271.331 651.12 272.038 650.76C272.758 650.387 273.585 650.2 274.518 650.2ZM286.689 661.14C285.596 661.14 284.622 660.907 283.769 660.44C282.916 659.96 282.242 659.307 281.749 658.48C281.256 657.653 281.009 656.713 281.009 655.66C281.009 654.593 281.256 653.653 281.749 652.84C282.242 652.013 282.916 651.367 283.769 650.9C284.622 650.433 285.596 650.2 286.689 650.2C287.796 650.2 288.776 650.433 289.629 650.9C290.496 651.367 291.169 652.007 291.649 652.82C292.142 653.633 292.389 654.58 292.389 655.66C292.389 656.713 292.142 657.653 291.649 658.48C291.169 659.307 290.496 659.96 289.629 660.44C288.776 660.907 287.796 661.14 286.689 661.14ZM286.689 659C287.302 659 287.849 658.867 288.329 658.6C288.809 658.333 289.182 657.947 289.449 657.44C289.729 656.933 289.869 656.34 289.869 655.66C289.869 654.967 289.729 654.373 289.449 653.88C289.182 653.373 288.809 652.987 288.329 652.72C287.849 652.453 287.309 652.32 286.709 652.32C286.096 652.32 285.549 652.453 285.069 652.72C284.602 652.987 284.229 653.373 283.949 653.88C283.669 654.373 283.529 654.967 283.529 655.66C283.529 656.34 283.669 656.933 283.949 657.44C284.229 657.947 284.602 658.333 285.069 658.6C285.549 658.867 286.089 659 286.689 659ZM296.567 661L292.647 650.32H295.007L298.367 659.74H297.247L300.767 650.32H302.867L306.287 659.74H305.187L308.647 650.32H310.867L306.927 661H304.527L301.407 652.66H302.147L298.967 661H296.567ZM312.441 661.14C311.988 661.14 311.601 660.987 311.281 660.68C310.961 660.36 310.801 659.96 310.801 659.48C310.801 658.973 310.961 658.573 311.281 658.28C311.601 657.973 311.988 657.82 312.441 657.82C312.895 657.82 313.281 657.973 313.601 658.28C313.921 658.573 314.081 658.973 314.081 659.48C314.081 659.96 313.921 660.36 313.601 660.68C313.281 660.987 312.895 661.14 312.441 661.14Z" fill="black"/>
<path d="M86.4316 130.82H93.3916V132.96H86.4316V130.82ZM86.6316 136.82H94.5316V139H84.0316V125H94.2516V127.18H86.6316V136.82ZM110.39 128.2C111.243 128.2 111.997 128.367 112.65 128.7C113.317 129.033 113.837 129.547 114.21 130.24C114.583 130.92 114.77 131.8 114.77 132.88V139H112.27V133.2C112.27 132.253 112.063 131.547 111.65 131.08C111.237 130.613 110.643 130.38 109.87 130.38C109.323 130.38 108.837 130.5 108.41 130.74C107.997 130.98 107.67 131.333 107.43 131.8C107.203 132.267 107.09 132.86 107.09 133.58V139H104.59V133.2C104.59 132.253 104.383 131.547 103.97 131.08C103.557 130.613 102.963 130.38 102.19 130.38C101.643 130.38 101.157 130.5 100.73 130.74C100.317 130.98 99.9901 131.333 99.7501 131.8C99.5234 132.267 99.4101 132.86 99.4101 133.58V139H96.9101V128.32H99.2901V131.16L98.8701 130.32C99.2301 129.627 99.7501 129.1 100.43 128.74C101.123 128.38 101.91 128.2 102.79 128.2C103.79 128.2 104.657 128.447 105.39 128.94C106.137 129.433 106.63 130.18 106.87 131.18L105.89 130.84C106.237 130.04 106.81 129.4 107.61 128.92C108.41 128.44 109.337 128.2 110.39 128.2ZM124.265 139V136.84L124.125 136.38V132.6C124.125 131.867 123.905 131.3 123.465 130.9C123.025 130.487 122.358 130.28 121.465 130.28C120.865 130.28 120.271 130.373 119.685 130.56C119.111 130.747 118.625 131.007 118.225 131.34L117.245 129.52C117.818 129.08 118.498 128.753 119.285 128.54C120.085 128.313 120.911 128.2 121.765 128.2C123.311 128.2 124.505 128.573 125.345 129.32C126.198 130.053 126.625 131.193 126.625 132.74V139H124.265ZM120.905 139.14C120.105 139.14 119.405 139.007 118.805 138.74C118.205 138.46 117.738 138.08 117.405 137.6C117.085 137.107 116.925 136.553 116.925 135.94C116.925 135.34 117.065 134.8 117.345 134.32C117.638 133.84 118.111 133.46 118.765 133.18C119.418 132.9 120.285 132.76 121.365 132.76H124.465V134.42H121.545C120.691 134.42 120.118 134.56 119.825 134.84C119.531 135.107 119.385 135.44 119.385 135.84C119.385 136.293 119.565 136.653 119.925 136.92C120.285 137.187 120.785 137.32 121.425 137.32C122.038 137.32 122.585 137.18 123.065 136.9C123.558 136.62 123.911 136.207 124.125 135.66L124.545 137.16C124.305 137.787 123.871 138.273 123.245 138.62C122.631 138.967 121.851 139.14 120.905 139.14ZM129.553 139V128.32H132.053V139H129.553ZM130.813 126.56C130.347 126.56 129.96 126.413 129.653 126.12C129.36 125.827 129.213 125.473 129.213 125.06C129.213 124.633 129.36 124.28 129.653 124C129.96 123.707 130.347 123.56 130.813 123.56C131.28 123.56 131.66 123.7 131.953 123.98C132.26 124.247 132.413 124.587 132.413 125C132.413 125.44 132.267 125.813 131.973 126.12C131.68 126.413 131.293 126.56 130.813 126.56ZM135.054 139V124.16H137.554V139H135.054ZM151.723 139.14C150.856 139.14 150.063 138.94 149.343 138.54C148.636 138.14 148.07 137.54 147.643 136.74C147.23 135.927 147.023 134.9 147.023 133.66C147.023 132.407 147.223 131.38 147.623 130.58C148.036 129.78 148.596 129.187 149.303 128.8C150.01 128.4 150.816 128.2 151.723 128.2C152.776 128.2 153.703 128.427 154.503 128.88C155.316 129.333 155.956 129.967 156.423 130.78C156.903 131.593 157.143 132.553 157.143 133.66C157.143 134.767 156.903 135.733 156.423 136.56C155.956 137.373 155.316 138.007 154.503 138.46C153.703 138.913 152.776 139.14 151.723 139.14ZM145.803 142.88V128.32H148.183V130.84L148.103 133.68L148.303 136.52V142.88H145.803ZM151.443 137C152.043 137 152.576 136.867 153.043 136.6C153.523 136.333 153.903 135.947 154.183 135.44C154.463 134.933 154.603 134.34 154.603 133.66C154.603 132.967 154.463 132.373 154.183 131.88C153.903 131.373 153.523 130.987 153.043 130.72C152.576 130.453 152.043 130.32 151.443 130.32C150.843 130.32 150.303 130.453 149.823 130.72C149.343 130.987 148.963 131.373 148.683 131.88C148.403 132.373 148.263 132.967 148.263 133.66C148.263 134.34 148.403 134.933 148.683 135.44C148.963 135.947 149.343 136.333 149.823 136.6C150.303 136.867 150.843 137 151.443 137ZM165.677 139V136.84L165.537 136.38V132.6C165.537 131.867 165.317 131.3 164.877 130.9C164.437 130.487 163.771 130.28 162.877 130.28C162.277 130.28 161.684 130.373 161.097 130.56C160.524 130.747 160.037 131.007 159.637 131.34L158.657 129.52C159.231 129.08 159.911 128.753 160.697 128.54C161.497 128.313 162.324 128.2 163.177 128.2C164.724 128.2 165.917 128.573 166.757 129.32C167.611 130.053 168.037 131.193 168.037 132.74V139H165.677ZM162.317 139.14C161.517 139.14 160.817 139.007 160.217 138.74C159.617 138.46 159.151 138.08 158.817 137.6C158.497 137.107 158.337 136.553 158.337 135.94C158.337 135.34 158.477 134.8 158.757 134.32C159.051 133.84 159.524 133.46 160.177 133.18C160.831 132.9 161.697 132.76 162.777 132.76H165.877V134.42H162.957C162.104 134.42 161.531 134.56 161.237 134.84C160.944 135.107 160.797 135.44 160.797 135.84C160.797 136.293 160.977 136.653 161.337 136.92C161.697 137.187 162.197 137.32 162.837 137.32C163.451 137.32 163.997 137.18 164.477 136.9C164.971 136.62 165.324 136.207 165.537 135.66L165.957 137.16C165.717 137.787 165.284 138.273 164.657 138.62C164.044 138.967 163.264 139.14 162.317 139.14ZM170.966 139V128.32H173.346V131.26L173.066 130.4C173.386 129.68 173.886 129.133 174.566 128.76C175.259 128.387 176.119 128.2 177.146 128.2V130.58C177.039 130.553 176.939 130.54 176.846 130.54C176.752 130.527 176.659 130.52 176.566 130.52C175.619 130.52 174.866 130.8 174.306 131.36C173.746 131.907 173.466 132.727 173.466 133.82V139H170.966ZM181.026 136.62L181.086 133.48L186.666 128.32H189.666L184.926 133.08L183.606 134.18L181.026 136.62ZM178.986 139V124.16H181.486V139H178.986ZM187.046 139L183.146 134.18L184.726 132.18L190.086 139H187.046ZM191.421 139V128.32H193.921V139H191.421ZM192.681 126.56C192.215 126.56 191.828 126.413 191.521 126.12C191.228 125.827 191.081 125.473 191.081 125.06C191.081 124.633 191.228 124.28 191.521 124C191.828 123.707 192.215 123.56 192.681 123.56C193.148 123.56 193.528 123.7 193.821 123.98C194.128 124.247 194.281 124.587 194.281 125C194.281 125.44 194.135 125.813 193.841 126.12C193.548 126.413 193.161 126.56 192.681 126.56ZM202.983 128.2C203.836 128.2 204.596 128.367 205.263 128.7C205.943 129.033 206.476 129.547 206.863 130.24C207.249 130.92 207.443 131.8 207.443 132.88V139H204.943V133.2C204.943 132.253 204.716 131.547 204.263 131.08C203.823 130.613 203.203 130.38 202.403 130.38C201.816 130.38 201.296 130.5 200.843 130.74C200.389 130.98 200.036 131.34 199.783 131.82C199.543 132.287 199.423 132.88 199.423 133.6V139H196.923V128.32H199.303V131.2L198.883 130.32C199.256 129.64 199.796 129.12 200.503 128.76C201.223 128.387 202.049 128.2 202.983 128.2ZM215.194 143.02C214.207 143.02 213.24 142.887 212.294 142.62C211.36 142.367 210.594 141.993 209.994 141.5L211.114 139.62C211.58 140.007 212.167 140.313 212.874 140.54C213.594 140.78 214.32 140.9 215.054 140.9C216.227 140.9 217.087 140.627 217.634 140.08C218.18 139.547 218.454 138.74 218.454 137.66V135.76L218.654 133.34L218.574 130.92V128.32H220.954V137.38C220.954 139.313 220.46 140.733 219.474 141.64C218.487 142.56 217.06 143.02 215.194 143.02ZM214.874 138.52C213.86 138.52 212.94 138.307 212.114 137.88C211.3 137.44 210.654 136.833 210.174 136.06C209.707 135.287 209.474 134.38 209.474 133.34C209.474 132.313 209.707 131.413 210.174 130.64C210.654 129.867 211.3 129.267 212.114 128.84C212.94 128.413 213.86 128.2 214.874 128.2C215.78 128.2 216.594 128.38 217.314 128.74C218.034 129.1 218.607 129.66 219.034 130.42C219.474 131.18 219.694 132.153 219.694 133.34C219.694 134.527 219.474 135.507 219.034 136.28C218.607 137.04 218.034 137.607 217.314 137.98C216.594 138.34 215.78 138.52 214.874 138.52ZM215.254 136.4C215.88 136.4 216.44 136.273 216.934 136.02C217.427 135.753 217.807 135.393 218.074 134.94C218.354 134.473 218.494 133.94 218.494 133.34C218.494 132.74 218.354 132.213 218.074 131.76C217.807 131.293 217.427 130.94 216.934 130.7C216.44 130.447 215.88 130.32 215.254 130.32C214.627 130.32 214.06 130.447 213.554 130.7C213.06 130.94 212.674 131.293 212.394 131.76C212.127 132.213 211.994 132.74 211.994 133.34C211.994 133.94 212.127 134.473 212.394 134.94C212.674 135.393 213.06 135.753 213.554 136.02C214.06 136.273 214.627 136.4 215.254 136.4ZM229.208 139V128.32H231.588V131.26L231.308 130.4C231.628 129.68 232.128 129.133 232.808 128.76C233.501 128.387 234.361 128.2 235.388 128.2V130.58C235.281 130.553 235.181 130.54 235.088 130.54C234.994 130.527 234.901 130.52 234.808 130.52C233.861 130.52 233.108 130.8 232.548 131.36C231.988 131.907 231.708 132.727 231.708 133.82V139H229.208ZM242.151 139.14C240.964 139.14 239.924 138.907 239.031 138.44C238.151 137.96 237.464 137.307 236.971 136.48C236.491 135.653 236.251 134.713 236.251 133.66C236.251 132.593 236.484 131.653 236.951 130.84C237.431 130.013 238.084 129.367 238.911 128.9C239.751 128.433 240.704 128.2 241.771 128.2C242.811 128.2 243.737 128.427 244.551 128.88C245.364 129.333 246.004 129.973 246.471 130.8C246.937 131.627 247.171 132.6 247.171 133.72C247.171 133.827 247.164 133.947 247.151 134.08C247.151 134.213 247.144 134.34 247.131 134.46H238.231V132.8H245.811L244.831 133.32C244.844 132.707 244.717 132.167 244.451 131.7C244.184 131.233 243.817 130.867 243.351 130.6C242.897 130.333 242.371 130.2 241.771 130.2C241.157 130.2 240.617 130.333 240.151 130.6C239.697 130.867 239.337 131.24 239.071 131.72C238.817 132.187 238.691 132.74 238.691 133.38V133.78C238.691 134.42 238.837 134.987 239.131 135.48C239.424 135.973 239.837 136.353 240.371 136.62C240.904 136.887 241.517 137.02 242.211 137.02C242.811 137.02 243.351 136.927 243.831 136.74C244.311 136.553 244.737 136.26 245.111 135.86L246.451 137.4C245.971 137.96 245.364 138.393 244.631 138.7C243.911 138.993 243.084 139.14 242.151 139.14ZM253.812 139.14C252.785 139.14 251.859 138.913 251.032 138.46C250.219 138.007 249.579 137.373 249.112 136.56C248.645 135.733 248.412 134.767 248.412 133.66C248.412 132.553 248.645 131.593 249.112 130.78C249.579 129.967 250.219 129.333 251.032 128.88C251.859 128.427 252.785 128.2 253.812 128.2C254.732 128.2 255.539 128.4 256.232 128.8C256.939 129.187 257.492 129.78 257.892 130.58C258.305 131.38 258.512 132.407 258.512 133.66C258.512 134.9 258.299 135.927 257.872 136.74C257.459 137.54 256.899 138.14 256.192 138.54C255.485 138.94 254.692 139.14 253.812 139.14ZM254.092 137C254.692 137 255.232 136.867 255.712 136.6C256.192 136.333 256.572 135.947 256.852 135.44C257.132 134.933 257.272 134.34 257.272 133.66C257.272 132.967 257.132 132.373 256.852 131.88C256.572 131.373 256.192 130.987 255.712 130.72C255.232 130.453 254.692 130.32 254.092 130.32C253.492 130.32 252.952 130.453 252.472 130.72C252.005 130.987 251.632 131.373 251.352 131.88C251.072 132.373 250.932 132.967 250.932 133.66C250.932 134.34 251.072 134.933 251.352 135.44C251.632 135.947 252.005 136.333 252.472 136.6C252.952 136.867 253.492 137 254.092 137ZM257.232 142.88V136.52L257.432 133.68L257.352 130.84V128.32H259.732V142.88H257.232ZM267.243 139.14C266.336 139.14 265.536 138.973 264.843 138.64C264.15 138.293 263.61 137.773 263.223 137.08C262.836 136.373 262.643 135.487 262.643 134.42V128.32H265.143V134.08C265.143 135.04 265.356 135.76 265.783 136.24C266.223 136.707 266.843 136.94 267.643 136.94C268.23 136.94 268.736 136.82 269.163 136.58C269.603 136.34 269.943 135.98 270.183 135.5C270.436 135.02 270.563 134.427 270.563 133.72V128.32H273.063V139H270.683V136.12L271.103 137C270.743 137.693 270.216 138.227 269.523 138.6C268.83 138.96 268.07 139.14 267.243 139.14ZM281.076 139.14C279.89 139.14 278.85 138.907 277.956 138.44C277.076 137.96 276.39 137.307 275.896 136.48C275.416 135.653 275.176 134.713 275.176 133.66C275.176 132.593 275.41 131.653 275.876 130.84C276.356 130.013 277.01 129.367 277.836 128.9C278.676 128.433 279.63 128.2 280.696 128.2C281.736 128.2 282.663 128.427 283.476 128.88C284.29 129.333 284.93 129.973 285.396 130.8C285.863 131.627 286.096 132.6 286.096 133.72C286.096 133.827 286.09 133.947 286.076 134.08C286.076 134.213 286.07 134.34 286.056 134.46H277.156V132.8H284.736L283.756 133.32C283.77 132.707 283.643 132.167 283.376 131.7C283.11 131.233 282.743 130.867 282.276 130.6C281.823 130.333 281.296 130.2 280.696 130.2C280.083 130.2 279.543 130.333 279.076 130.6C278.623 130.867 278.263 131.24 277.996 131.72C277.743 132.187 277.616 132.74 277.616 133.38V133.78C277.616 134.42 277.763 134.987 278.056 135.48C278.35 135.973 278.763 136.353 279.296 136.62C279.83 136.887 280.443 137.02 281.136 137.02C281.736 137.02 282.276 136.927 282.756 136.74C283.236 136.553 283.663 136.26 284.036 135.86L285.376 137.4C284.896 137.96 284.29 138.393 283.556 138.7C282.836 138.993 282.01 139.14 281.076 139.14ZM291.518 139.14C290.624 139.14 289.764 139.027 288.938 138.8C288.124 138.56 287.478 138.273 286.998 137.94L287.958 136.04C288.438 136.347 289.011 136.6 289.678 136.8C290.344 137 291.011 137.1 291.678 137.1C292.464 137.1 293.031 136.993 293.378 136.78C293.738 136.567 293.918 136.28 293.918 135.92C293.918 135.627 293.798 135.407 293.558 135.26C293.318 135.1 293.004 134.98 292.618 134.9C292.231 134.82 291.798 134.747 291.318 134.68C290.851 134.613 290.378 134.527 289.898 134.42C289.431 134.3 289.004 134.133 288.618 133.92C288.231 133.693 287.918 133.393 287.678 133.02C287.438 132.647 287.318 132.153 287.318 131.54C287.318 130.86 287.511 130.273 287.898 129.78C288.284 129.273 288.824 128.887 289.518 128.62C290.224 128.34 291.058 128.2 292.018 128.2C292.738 128.2 293.464 128.28 294.198 128.44C294.931 128.6 295.538 128.827 296.018 129.12L295.058 131.02C294.551 130.713 294.038 130.507 293.518 130.4C293.011 130.28 292.504 130.22 291.998 130.22C291.238 130.22 290.671 130.333 290.298 130.56C289.938 130.787 289.758 131.073 289.758 131.42C289.758 131.74 289.878 131.98 290.118 132.14C290.358 132.3 290.671 132.427 291.058 132.52C291.444 132.613 291.871 132.693 292.338 132.76C292.818 132.813 293.291 132.9 293.758 133.02C294.224 133.14 294.651 133.307 295.038 133.52C295.438 133.72 295.758 134.007 295.998 134.38C296.238 134.753 296.358 135.24 296.358 135.84C296.358 136.507 296.158 137.087 295.758 137.58C295.371 138.073 294.818 138.46 294.098 138.74C293.378 139.007 292.518 139.14 291.518 139.14ZM302.251 139.14C301.077 139.14 300.171 138.84 299.531 138.24C298.891 137.627 298.571 136.727 298.571 135.54V125.96H301.071V135.48C301.071 135.987 301.197 136.38 301.451 136.66C301.717 136.94 302.084 137.08 302.551 137.08C303.111 137.08 303.577 136.933 303.951 136.64L304.651 138.42C304.357 138.66 303.997 138.84 303.571 138.96C303.144 139.08 302.704 139.14 302.251 139.14ZM296.811 130.4V128.4H303.931V130.4H296.811ZM309.727 139.14C308.834 139.14 307.974 139.027 307.147 138.8C306.334 138.56 305.687 138.273 305.207 137.94L306.167 136.04C306.647 136.347 307.221 136.6 307.887 136.8C308.554 137 309.221 137.1 309.887 137.1C310.674 137.1 311.241 136.993 311.587 136.78C311.947 136.567 312.127 136.28 312.127 135.92C312.127 135.627 312.007 135.407 311.767 135.26C311.527 135.1 311.214 134.98 310.827 134.9C310.441 134.82 310.007 134.747 309.527 134.68C309.061 134.613 308.587 134.527 308.107 134.42C307.641 134.3 307.214 134.133 306.827 133.92C306.441 133.693 306.127 133.393 305.887 133.02C305.647 132.647 305.527 132.153 305.527 131.54C305.527 130.86 305.721 130.273 306.107 129.78C306.494 129.273 307.034 128.887 307.727 128.62C308.434 128.34 309.267 128.2 310.227 128.2C310.947 128.2 311.674 128.28 312.407 128.44C313.141 128.6 313.747 128.827 314.227 129.12L313.267 131.02C312.761 130.713 312.247 130.507 311.727 130.4C311.221 130.28 310.714 130.22 310.207 130.22C309.447 130.22 308.881 130.333 308.507 130.56C308.147 130.787 307.967 131.073 307.967 131.42C307.967 131.74 308.087 131.98 308.327 132.14C308.567 132.3 308.881 132.427 309.267 132.52C309.654 132.613 310.081 132.693 310.547 132.76C311.027 132.813 311.501 132.9 311.967 133.02C312.434 133.14 312.861 133.307 313.247 133.52C313.647 133.72 313.967 134.007 314.207 134.38C314.447 134.753 314.567 135.24 314.567 135.84C314.567 136.507 314.367 137.087 313.967 137.58C313.581 138.073 313.027 138.46 312.307 138.74C311.587 139.007 310.727 139.14 309.727 139.14ZM318.947 134.36C318.947 133.867 319.027 133.433 319.187 133.06C319.347 132.687 319.554 132.353 319.807 132.06C320.061 131.767 320.327 131.493 320.607 131.24C320.901 130.987 321.174 130.74 321.427 130.5C321.681 130.26 321.887 130.007 322.047 129.74C322.207 129.473 322.287 129.173 322.287 128.84C322.287 128.28 322.061 127.827 321.607 127.48C321.154 127.133 320.547 126.96 319.787 126.96C319.054 126.96 318.414 127.093 317.867 127.36C317.334 127.627 316.887 128.007 316.527 128.5L314.587 127.24C315.147 126.48 315.881 125.887 316.787 125.46C317.694 125.02 318.767 124.8 320.007 124.8C320.981 124.8 321.834 124.947 322.567 125.24C323.301 125.52 323.874 125.933 324.287 126.48C324.701 127.013 324.907 127.667 324.907 128.44C324.907 128.973 324.821 129.44 324.647 129.84C324.487 130.24 324.274 130.593 324.007 130.9C323.754 131.193 323.481 131.473 323.187 131.74C322.894 131.993 322.614 132.247 322.347 132.5C322.094 132.753 321.887 133.027 321.727 133.32C321.567 133.613 321.487 133.96 321.487 134.36H318.947ZM320.227 139.14C319.761 139.14 319.374 138.987 319.067 138.68C318.774 138.373 318.627 138.007 318.627 137.58C318.627 137.153 318.774 136.793 319.067 136.5C319.374 136.193 319.761 136.04 320.227 136.04C320.694 136.04 321.074 136.193 321.367 136.5C321.661 136.793 321.807 137.153 321.807 137.58C321.807 138.007 321.661 138.373 321.367 138.68C321.074 138.987 320.694 139.14 320.227 139.14Z" fill="black"/>
<g clip-path="url(#clip0_0_1087)">
<path d="M73.4953 408.11C73.4953 408.11 73.3181 407.723 73.012 407.006" stroke="#7A907F" stroke-width="0.5" stroke-miterlimit="10"/>
<path d="M72.0777 404.764C67.5349 393.55 54.406 356.616 67.7282 332.953C83.5877 304.783 136.861 264.27 110.836 222.282C77.5951 168.643 81.3485 267.689 133.727 261.44C186.106 255.192 167.194 216.912 233.87 210.519C300.545 204.125 315.994 275.017 336.002 292.335C363.959 316.53 379.947 275.195 331.427 278.226C297.759 280.33 298 306.09 316.534 341.104C335.518 376.965 314.375 406.143 308.165 413.52" stroke="#7A907F" stroke-width="0.5" stroke-miterlimit="10"/>
<path d="M307.376 414.447C306.86 415.036 306.562 415.334 306.562 415.334" stroke="#7A907F" stroke-width="0.5" stroke-miterlimit="10"/>
<path d="M66.5764 295.093L105.335 284.063L113.905 318.304L70.8051 327.14L66.5764 295.093Z" fill="#ECB657"/>
<path d="M60.02 298.89L95.7581 280.266L111.046 312.08L70.6118 329.43L60.02 298.89Z" fill="#F3D58A"/>
<path d="M76.258 315.813L76.6849 300.938L84.6347 306.291L86.0926 300.414L95.9192 307.726L76.258 315.813Z" fill="white"/>
<path d="M292.563 228.804L318.394 240.64L305.467 276.243L276.809 266.689L292.563 228.804Z" fill="#7A907F"/>
<path d="M298.838 225.821L323.992 239.051L309.14 273.897L281.045 262.795L298.838 225.821Z" fill="#A9B9A8"/>
<path d="M291.79 250.242L302.97 240.438L304.46 249.903L309.752 246.977L311.097 259.159L291.79 250.242Z" fill="#F2F4F3"/>
<path d="M226.339 222.532L225.469 203.037L262.472 201.271L261.183 223.604L226.339 222.532Z" fill="#ECB657"/>
<path d="M225.469 203.037L242.561 215.09L262.472 201.271L225.469 203.037Z" fill="#F3D58A"/>
<path d="M164.174 219.863C164.174 219.863 182.039 231.537 192.389 221.177C192.389 221.177 187.693 235.423 168.877 236.044C162.925 236.238 156.924 231.215 156.924 231.215L164.174 219.863Z" fill="#ECE9DE"/>
<path d="M179.695 203.609C179.695 203.609 185.921 208.358 185.14 220.911C184.358 233.464 168.878 236.052 168.878 236.052C168.878 236.052 196.15 238.447 208.377 215.227L179.695 203.618V203.609Z" fill="white"/>
<path d="M327.673 322.448C327.673 322.448 310.114 327.713 304.106 316.659C304.106 316.659 304.508 329.543 319.86 334.638C324.717 336.251 330.879 333.574 330.879 333.574L327.665 322.456L327.673 322.448Z" fill="#ECB657"/>
<path d="M318.837 305.275C318.837 305.275 312.555 307.67 310.147 318.199C307.738 328.729 319.86 334.638 319.86 334.638C319.86 334.638 296.808 329.962 292.386 307.855L318.837 305.283V305.275Z" fill="#F3D58A"/>
<path d="M100.43 218.807L135.515 212.059L113.261 240.325L100.43 218.807Z" fill="#A9B9A8"/>
<path d="M108.251 231.916L133.083 213.3L104.376 225.426L108.251 231.916Z" fill="#7A907F"/>
<path d="M109.354 233.771L103.458 235.818L104.376 225.426L109.354 233.771Z" fill="#7A907F"/>
<path d="M98.1825 389.035H24L31.9499 433.49H106.132L98.1825 389.035Z" fill="#A9B9A8"/>
<path d="M32.5781 433.49H113.196L123.611 370.653H104.578L95.5326 382.722H41.3737L32.5781 433.49Z" fill="white"/>
<path d="M86.9625 415.939L78.0945 403.402L69.2264 415.939H72.8107V423.187H83.3783V415.939H86.9625Z" fill="#BAC7B7"/>
<path d="M106.269 393.985H49.9196C48.4516 393.985 47.2616 395.176 47.2616 396.645C47.2616 398.115 48.4516 399.306 49.9196 399.306H106.269C107.737 399.306 108.927 398.115 108.927 396.645C108.927 395.176 107.737 393.985 106.269 393.985Z" fill="#ECE9DE"/>
<path d="M68.3404 393.985H49.9196C48.4516 393.985 47.2616 395.176 47.2616 396.645C47.2616 398.115 48.4516 399.306 49.9196 399.306H68.3404C69.8084 399.306 70.9984 398.115 70.9984 396.645C70.9984 395.176 69.8084 393.985 68.3404 393.985Z" fill="#F3D58A"/>
<path d="M344.572 389.035H270.389L278.339 433.49H352.522L344.572 389.035Z" fill="#A9B9A8"/>
<path d="M278.975 433.49H359.585L370 370.653H350.967L341.922 382.722H287.763L278.975 433.49Z" fill="white"/>
<path d="M315.624 401.225L324.484 413.77L333.352 401.225H329.767V393.985H319.2V401.225H315.624Z" fill="#BAC7B7"/>
<path d="M296.317 423.187H352.667C354.135 423.187 355.325 421.995 355.325 420.526C355.325 419.057 354.135 417.866 352.667 417.866H296.317C294.849 417.866 293.659 419.057 293.659 420.526C293.659 421.995 294.849 423.187 296.317 423.187Z" fill="#ECE9DE"/>
<path d="M296.317 423.187H335.945C337.413 423.187 338.603 421.995 338.603 420.526C338.603 419.057 337.413 417.866 335.945 417.866H296.317C294.849 417.866 293.659 419.057 293.659 420.526C293.659 421.995 294.849 423.187 296.317 423.187Z" fill="#F3D58A"/>
<path d="M266.893 373.813H190.295" stroke="#7A907F" stroke-miterlimit="10"/>
<path d="M185.486 505.946H260.844V373.813" stroke="#7A907F" stroke-miterlimit="10"/>
<path d="M160.444 516C181.218 516 198.059 515.271 198.059 514.371C198.059 513.472 181.218 512.743 160.444 512.743C139.67 512.743 122.83 513.472 122.83 514.371C122.83 515.271 139.67 516 160.444 516Z" fill="#7A907F"/>
<path d="M240.579 507.575C275.588 507.575 303.969 506.846 303.969 505.946C303.969 505.047 275.588 504.318 240.579 504.318C205.57 504.318 177.19 505.047 177.19 505.946C177.19 506.846 205.57 507.575 240.579 507.575Z" fill="#7A907F"/>
<path d="M198.285 311.338L201.482 289.546L212.702 290.376L209.021 313.338L198.285 311.338Z" fill="#A9B9A8"/>
<path d="M198.285 311.338L201.482 289.546L199.517 289.497L196.505 310.87L198.285 311.338Z" fill="#7A907F"/>
<path d="M210.141 293.94C210.831 293.94 211.389 293.38 211.389 292.69C211.389 292 210.831 291.44 210.141 291.44C209.452 291.44 208.893 292 208.893 292.69C208.893 293.38 209.452 293.94 210.141 293.94Z" fill="#E4DDCD"/>
<path d="M182.804 493.756L187.153 471.359L200.677 469.803L194.878 498.521L182.804 493.756Z" fill="#994534"/>
<path d="M181.193 499.634L183.931 486.282H198.631L197.906 489.169H197.06L195.2 498.352L181.193 499.634Z" fill="white"/>
<path d="M182.151 494.627L179.002 505.946H221.53C221.53 505.946 216.931 487.363 202.811 498.698H201.386L196.795 490.741C196.795 490.741 191.471 490.66 189.578 495.546C187.685 500.432 182.151 494.619 182.151 494.619V494.627Z" fill="#3F3231"/>
<path d="M148.789 509.365L150.167 482.316H163.771L161.822 510.477L148.789 509.365Z" fill="#994534"/>
<path d="M148.789 505.97L149.047 492.781L164.754 492.208L164.488 494.844L163.247 495.377L162.522 502.979L158.495 508.462L148.789 505.97Z" fill="white"/>
<path d="M182.304 316.7L201.958 355.06L192.163 365.864L172.462 342.41L182.304 316.7Z" fill="#FC5954"/>
<path d="M146.808 316.7C146.808 316.7 157.641 320.255 182.304 316.7C182.304 316.7 184.294 330.325 180.436 343.813C178.849 349.352 175.99 359.22 179.147 365.444L149.055 369.613C149.055 369.613 146.623 326.794 146.816 316.691L146.808 316.7Z" fill="#FC5954"/>
<path d="M183 326C182.135 331.545 180.325 338.667 176.554 345.574C173.798 350.633 169.172 359.077 170.128 366L178.424 365.092C174.482 358.942 178.052 349.191 180.033 343.718C182.336 337.352 182.97 330.947 183 326Z" fill="#FC5954"/>
<path d="M157.738 306.775V319.828L170.053 319.207L164.004 305.404L157.738 306.775Z" fill="#994534"/>
<path d="M156.82 321.134L156.175 313.338L170.053 312.386L170.964 315.119L168.918 315.426L171.874 320.602L156.82 321.134Z" fill="#FC5954"/>
<path d="M168.918 315.426L160.275 316.063L169.892 317.127L168.918 315.426Z" fill="#FC5954"/>
<path d="M158.423 308.944L166.815 311.83L165.478 308.766L158.423 308.944Z" fill="#542C22"/>
<path d="M166.042 280.863L179.147 297.197L173.034 299.825L176.094 308.508L158.423 308.944L152.938 291.674L166.042 280.863Z" fill="#994534"/>
<path d="M173.831 302.091C173.831 302.091 169.562 304.654 164.004 301.163" stroke="#3F3231" stroke-width="0.5" stroke-miterlimit="10"/>
<path d="M164.166 302.687C164.166 302.687 162.635 300.76 165.309 300.43" stroke="#3F3231" stroke-width="0.5" stroke-miterlimit="10"/>
<path d="M167.2 294.211C167.772 293.859 167.718 292.731 167.08 291.692C166.442 290.652 165.46 290.095 164.888 290.447C164.316 290.799 164.369 291.927 165.008 292.967C165.646 294.006 166.627 294.563 167.2 294.211Z" fill="#3F3231"/>
<path d="M159.542 301.373L155.12 290.932C155.12 290.932 163.803 284.45 166.598 281.572C169.393 278.694 175.82 270.631 164.512 271.76C153.203 272.889 150.239 274.38 153.912 280.322C153.912 280.322 137.658 284.499 142.177 288.739C146.695 292.98 154.83 302.091 154.83 302.091L159.534 301.381L159.542 301.373Z" fill="#3F3231"/>
<path d="M158.229 301.623C158.229 301.623 153.219 297.971 150.876 298.793C148.894 299.487 149.885 305.299 152.575 306.573C155.265 307.847 161.685 308.25 158.229 301.623Z" fill="#994534"/>
<path d="M157.738 303.622L159.357 302.171L157.939 302.324L157.907 302.042L160.227 301.776L158.624 303.211L160.235 303.01L160.275 303.292L157.738 303.622Z" fill="#3F3231"/>
<path d="M146.808 316.7L109.491 344.2L123.981 350.698L152.639 338.968L146.808 316.7Z" fill="#FC5954"/>
<path d="M132.793 347.094L109.491 344.2C109.491 344.2 117.892 355.608 130.57 363.316C143.932 371.443 144.851 374.514 144.851 374.514L144.472 376.594C139.672 376.216 140.711 381.206 140.711 381.206L136.949 384.689C134.315 381.206 129.708 383.657 129.708 383.657L138.455 387.325L148.524 379.416L149.063 369.613L132.801 347.094H132.793Z" fill="#994534"/>
<path d="M132.793 347.094L119.559 345.45L138.045 354.367L132.793 347.094Z" fill="#542C22"/>
<path d="M192.163 365.864C192.163 365.864 190.665 358.043 192.163 346.079C193.661 334.114 201.072 330.502 203.061 312.394L210.133 308.952L204.116 356.721L192.163 365.872V365.864Z" fill="#994534"/>
<path d="M203.061 312.386L205.494 313.708L202.272 317.627L203.061 312.386Z" fill="#542C22"/>
<path d="M210.141 308.944L211.075 303.711L197.181 297.705L195.24 307.331L203.061 312.386L210.141 308.944Z" fill="#994534"/>
<path d="M196.811 299.527L203.432 302.994" stroke="#3F3231" stroke-width="0.5" stroke-miterlimit="10"/>
<path d="M196.295 302.083L201.958 305.404" stroke="#3F3231" stroke-width="0.5" stroke-miterlimit="10"/>
<path d="M195.82 305.05L201.482 308.371" stroke="#3F3231" stroke-width="0.5" stroke-miterlimit="10"/>
<path d="M180.065 368.774L214.7 412.859L204.229 482.316H182.063L191.044 419.284L152.639 377.731L171.624 368.774H180.065Z" fill="#BAC7B7"/>
<path d="M194.185 482.316L202.61 423.179L164.206 381.625L152.639 377.731L191.044 419.284L182.063 482.316H194.185Z" fill="#A9B9A8"/>
<path d="M149.047 369.613L143.667 487.338H166.687L172.365 366.388L149.047 369.613Z" fill="#BAC7B7"/>
<path d="M170.891 397.597V383.181L174.524 382.73" stroke="#7A907F" stroke-miterlimit="10"/>
<path d="M149.047 369.613L179.147 365.444L180.065 368.774L149.047 373.813V369.613Z" fill="#ECE9DE"/>
<path d="M148.54 503.149L147.114 514.468H187.918C187.918 514.468 183.319 495.885 169.2 507.22H167.774L163.183 499.263C163.183 499.263 157.859 499.182 155.966 504.068C154.073 508.954 148.54 503.141 148.54 503.141V503.149Z" fill="#3F3231"/>
<path d="M187.105 282.233H224.881C226.287 282.233 227.426 281.093 227.426 279.685V279.323C227.426 277.916 226.287 276.775 224.881 276.775H187.105C185.699 276.775 184.56 277.916 184.56 279.323V279.685C184.56 281.093 185.699 282.233 187.105 282.233Z" fill="white" stroke="#7A907F" stroke-width="0.25" stroke-miterlimit="10"/>
<path d="M187.113 282.233H192.018C193.424 282.233 194.563 281.093 194.563 279.685V279.323C194.563 277.916 193.424 276.775 192.018 276.775H187.113C185.707 276.775 184.568 277.916 184.568 279.323V279.685C184.568 281.093 185.707 282.233 187.113 282.233Z" fill="#A9B9A8"/>
<path d="M227.917 340.129H265.693C267.099 340.129 268.239 338.988 268.239 337.581V337.218C268.239 335.811 267.099 334.67 265.693 334.67H227.917C226.512 334.67 225.372 335.811 225.372 337.218V337.581C225.372 338.988 226.512 340.129 227.917 340.129Z" fill="white" stroke="#7A907F" stroke-width="0.25" stroke-miterlimit="10"/>
<path d="M227.917 340.129H257.768C259.173 340.129 260.313 338.988 260.313 337.581V337.218C260.313 335.811 259.173 334.67 257.768 334.67H227.917C226.512 334.67 225.372 335.811 225.372 337.218V337.581C225.372 338.988 226.512 340.129 227.917 340.129Z" fill="#A9B9A8"/>
<path d="M263.865 346.99H222.102L211.245 373.813H253.007L263.865 346.99Z" fill="#A9B9A8"/>
<path d="M266.893 346.99H225.131L214.273 373.813H256.036L266.893 346.99Z" fill="#7A907F"/>
<path d="M243.427 362.421C245.258 360.817 245.748 358.379 244.521 356.974C243.294 355.57 240.814 355.732 238.983 357.336C237.151 358.939 236.661 361.378 237.889 362.782C239.116 364.186 241.595 364.024 243.427 362.421Z" stroke="#A9B9A8" stroke-miterlimit="10"/>
<path d="M257.542 370.403H198.18V373.813H257.542V370.403Z" fill="#7A907F"/>
<path d="M215.538 370.403H198.18V373.813H215.538V370.403Z" fill="#A9B9A8"/>
<path d="M268.851 468.795C268.851 468.795 252.935 487.871 239.379 468.795H268.851Z" fill="#ECE9DE"/>
<path d="M255.174 429.846H256.084C259.66 429.846 262.568 432.757 262.568 436.336V482.582C262.568 483.057 262.182 483.444 261.706 483.444H249.552C249.077 483.444 248.69 483.057 248.69 482.582V436.336C248.69 432.757 251.598 429.846 255.174 429.846Z" fill="#E4DDCD"/>
<path d="M261.73 457.29H257.381C255.577 457.29 253.958 455.976 253.797 454.178C253.62 452.146 255.214 450.453 257.204 450.453H261.739C264.3 450.453 266.378 448.373 266.378 445.809V441.23C266.378 439.424 267.691 437.804 269.487 437.642C271.517 437.465 273.208 439.061 273.208 441.053V445.809C273.208 452.155 268.069 457.298 261.73 457.298V457.29Z" fill="#E4DDCD"/>
<path d="M254.522 466.312H249.769C243.431 466.312 238.292 461.168 238.292 454.823V450.461C238.292 448.655 239.605 447.035 241.401 446.874C243.431 446.696 245.122 448.293 245.122 450.284V454.823C245.122 457.387 247.2 459.475 249.769 459.475H254.344C256.149 459.475 257.768 460.789 257.929 462.587C258.106 464.619 256.511 466.312 254.522 466.312Z" fill="#E4DDCD"/>
<path d="M252.25 437.634H251.678V440.013H252.25V437.634Z" fill="#F2F4F3"/>
<path d="M259.524 434.071H258.952V436.449H259.524V434.071Z" fill="#F2F4F3"/>
<path d="M255.472 447.906H254.9V450.284H255.472V447.906Z" fill="#F2F4F3"/>
<path d="M257.486 440.698H256.914V443.076H257.486V440.698Z" fill="#F2F4F3"/>
<path d="M260.603 461.063H260.031V463.442H260.603V461.063Z" fill="#F2F4F3"/>
<path d="M268.367 439.86H267.796V442.238H268.367V439.86Z" fill="#F2F4F3"/>
<path d="M252.25 455.452H251.678V457.83H252.25V455.452Z" fill="#F2F4F3"/>
<path d="M252.846 465.627H252.274V468.005H252.846V465.627Z" fill="#F2F4F3"/>
<path d="M258.195 454.912H257.623V457.29H258.195V454.912Z" fill="#F2F4F3"/>
<path d="M240.869 455.396H240.297V457.774H240.869V455.396Z" fill="#F2F4F3"/>
<path d="M243.6 450.953H243.028V453.332H243.6V450.953Z" fill="#F2F4F3"/>
<path d="M244.856 457.774H244.284V460.152H244.856V457.774Z" fill="#F2F4F3"/>
<path d="M261.102 445.834H260.53V448.212H261.102V445.834Z" fill="#F2F4F3"/>
<path d="M269.56 449.091H268.988V451.469H269.56V449.091Z" fill="#F2F4F3"/>
<path d="M239.379 468.795L242.706 505.035H268.851V468.795C268.851 468.795 252.935 487.871 239.379 468.795Z" fill="white"/>
<path d="M264.074 246.501C267.42 246.501 270.131 243.787 270.131 240.438C270.131 237.09 267.42 234.375 264.074 234.375C260.729 234.375 258.017 237.09 258.017 240.438C258.017 243.787 260.729 246.501 264.074 246.501Z" fill="#F3D58A"/>
<path d="M328.108 372.539C331.453 372.539 334.165 369.825 334.165 366.476C334.165 363.128 331.453 360.413 328.108 360.413C324.763 360.413 322.051 363.128 322.051 366.476C322.051 369.825 324.763 372.539 328.108 372.539Z" fill="#F3D58A"/>
<path d="M270.131 325.221C271.804 325.221 273.16 323.864 273.16 322.19C273.16 320.516 271.804 319.159 270.131 319.159C268.459 319.159 267.103 320.516 267.103 322.19C267.103 323.864 268.459 325.221 270.131 325.221Z" fill="#A9B9A8"/>
<path d="M51.9655 332.526C53.6381 332.526 54.994 331.169 54.994 329.494C54.994 327.82 53.6381 326.463 51.9655 326.463C50.2929 326.463 48.937 327.82 48.937 329.494C48.937 331.169 50.2929 332.526 51.9655 332.526Z" fill="#A9B9A8"/>
<path d="M142.386 243.47C144.059 243.47 145.415 242.112 145.415 240.438C145.415 238.764 144.059 237.407 142.386 237.407C140.713 237.407 139.358 238.764 139.358 240.438C139.358 242.112 140.713 243.47 142.386 243.47Z" fill="#F3D58A"/>
<path d="M352.199 275.324L349.872 284.918L342.615 277.654L352.199 275.324Z" fill="#A9B9A8"/>
<path d="M68.6223 354.367L66.2945 363.961L59.0374 356.705L68.6223 354.367Z" fill="#F3D58A"/>
<path d="M212.96 245.461L204.535 250.597V240.325L212.96 245.461Z" fill="#A9B9A8"/>
<path d="M292.386 196.136L283.961 201.271V191L292.386 196.136Z" fill="#F3D58A"/>
<path d="M167.621 319.336L146.808 316.7C146.808 316.7 149.047 323.125 147.863 337.404C147.863 337.404 149.925 327.672 149.458 319.159L167.621 319.336Z" fill="#FC5954"/>
</g>
<circle cx="180" cy="796" r="5" fill="#A40606"/>
<circle cx="198" cy="796" r="5" fill="#D9D9D9"/>
<circle cx="216" cy="796" r="5" fill="#D9D9D9"/>
<circle cx="234" cy="796" r="5" fill="#D9D9D9"/>
<defs>
<clipPath id="clip0_0_1087">
<rect width="346" height="325" fill="white" transform="translate(24 191)"/>
</clipPath>
</defs>
</svg>
