<svg width="393" height="852" viewBox="0 0 393 852" fill="none" xmlns="http://www.w3.org/2000/svg">
<rect width="393" height="852" fill="#FEBE14"/>
<path d="M109.181 86.1761V80.0909H137.852V86.1761H127.164V115H119.869V86.1761H109.181ZM146.34 115.494C144.67 115.494 143.181 115.205 141.874 114.625C140.567 114.034 139.533 113.165 138.772 112.017C138.022 110.858 137.647 109.415 137.647 107.688C137.647 106.233 137.914 105.011 138.448 104.023C138.982 103.034 139.71 102.239 140.63 101.636C141.55 101.034 142.596 100.58 143.766 100.273C144.948 99.9659 146.187 99.75 147.482 99.625C149.005 99.4659 150.232 99.3182 151.164 99.1818C152.096 99.0341 152.772 98.8182 153.192 98.5341C153.613 98.25 153.823 97.8295 153.823 97.2727V97.1705C153.823 96.0909 153.482 95.2557 152.8 94.6648C152.13 94.0739 151.175 93.7784 149.937 93.7784C148.63 93.7784 147.59 94.0682 146.817 94.6477C146.045 95.2159 145.533 95.9318 145.283 96.7955L138.567 96.25C138.908 94.6591 139.579 93.2841 140.579 92.125C141.579 90.9545 142.869 90.0568 144.448 89.4318C146.039 88.7955 147.88 88.4773 149.971 88.4773C151.425 88.4773 152.817 88.6477 154.147 88.9886C155.488 89.3295 156.675 89.858 157.71 90.5739C158.755 91.2898 159.579 92.2102 160.181 93.3352C160.783 94.4489 161.085 95.7841 161.085 97.3409V115H154.198V111.369H153.994C153.573 112.188 153.011 112.909 152.306 113.534C151.602 114.148 150.755 114.631 149.766 114.983C148.778 115.324 147.636 115.494 146.34 115.494ZM148.42 110.483C149.488 110.483 150.431 110.273 151.249 109.852C152.067 109.42 152.71 108.841 153.175 108.114C153.641 107.386 153.874 106.562 153.874 105.642V102.864C153.647 103.011 153.335 103.148 152.937 103.273C152.55 103.386 152.113 103.494 151.624 103.597C151.136 103.687 150.647 103.773 150.158 103.852C149.67 103.92 149.227 103.983 148.829 104.04C147.977 104.165 147.232 104.364 146.596 104.636C145.96 104.909 145.465 105.278 145.113 105.744C144.761 106.199 144.585 106.767 144.585 107.449C144.585 108.438 144.942 109.193 145.658 109.716C146.386 110.227 147.306 110.483 148.42 110.483ZM173.298 107.466L173.315 98.7557H174.371L182.758 88.8182H191.093L179.826 101.977H178.104L173.298 107.466ZM166.718 115V80.0909H173.979V115H166.718ZM183.082 115L175.377 103.597L180.218 98.4659L191.587 115H183.082ZM205.509 115.511C202.816 115.511 200.498 114.966 198.555 113.875C196.623 112.773 195.134 111.216 194.089 109.205C193.043 107.182 192.521 104.79 192.521 102.028C192.521 99.3352 193.043 96.9716 194.089 94.9375C195.134 92.9034 196.606 91.3182 198.504 90.1818C200.413 89.0455 202.651 88.4773 205.219 88.4773C206.947 88.4773 208.555 88.7557 210.043 89.3125C211.543 89.858 212.85 90.6818 213.964 91.7841C215.089 92.8864 215.964 94.2727 216.589 95.9432C217.214 97.6023 217.526 99.5455 217.526 101.773V103.767H195.418V99.267H210.691C210.691 98.2216 210.464 97.2955 210.009 96.4886C209.555 95.6818 208.924 95.0511 208.117 94.5966C207.322 94.1307 206.396 93.8977 205.339 93.8977C204.237 93.8977 203.259 94.1534 202.407 94.6648C201.566 95.1648 200.907 95.8409 200.43 96.6932C199.952 97.5341 199.708 98.4716 199.697 99.5057V103.784C199.697 105.08 199.935 106.199 200.413 107.142C200.901 108.085 201.589 108.812 202.475 109.324C203.362 109.835 204.413 110.091 205.629 110.091C206.435 110.091 207.174 109.977 207.844 109.75C208.515 109.523 209.089 109.182 209.566 108.727C210.043 108.273 210.407 107.716 210.657 107.057L217.373 107.5C217.032 109.114 216.333 110.523 215.276 111.727C214.231 112.92 212.879 113.852 211.219 114.523C209.572 115.182 207.668 115.511 205.509 115.511ZM233.511 80.0909H242.613L252.227 103.545H252.636L262.249 80.0909H271.352V115H264.192V92.2784H263.903L254.869 114.83H249.994L240.96 92.1932H240.67V115H233.511V80.0909ZM281.779 124.818C280.859 124.818 279.995 124.744 279.188 124.597C278.393 124.46 277.734 124.284 277.211 124.068L278.847 118.648C279.7 118.909 280.467 119.051 281.148 119.074C281.842 119.097 282.438 118.938 282.938 118.597C283.45 118.256 283.864 117.676 284.183 116.858L284.609 115.75L275.217 88.8182H282.853L288.273 108.045H288.546L294.018 88.8182H301.705L291.529 117.83C291.04 119.239 290.376 120.466 289.535 121.511C288.705 122.568 287.654 123.381 286.381 123.949C285.109 124.528 283.575 124.818 281.779 124.818ZM155.136 173V138.091H168.908C171.556 138.091 173.812 138.597 175.675 139.608C177.539 140.608 178.96 142 179.937 143.784C180.925 145.557 181.42 147.602 181.42 149.92C181.42 152.239 180.92 154.284 179.92 156.057C178.92 157.83 177.471 159.21 175.573 160.199C173.687 161.187 171.403 161.682 168.721 161.682H159.942V155.767H167.528C168.948 155.767 170.119 155.523 171.039 155.034C171.971 154.534 172.664 153.847 173.119 152.972C173.585 152.085 173.817 151.068 173.817 149.92C173.817 148.761 173.585 147.75 173.119 146.886C172.664 146.011 171.971 145.335 171.039 144.858C170.107 144.369 168.925 144.125 167.494 144.125H162.516V173H155.136ZM192.84 173.494C191.17 173.494 189.681 173.205 188.374 172.625C187.067 172.034 186.033 171.165 185.272 170.017C184.522 168.858 184.147 167.415 184.147 165.688C184.147 164.233 184.414 163.011 184.948 162.023C185.482 161.034 186.21 160.239 187.13 159.636C188.05 159.034 189.096 158.58 190.266 158.273C191.448 157.966 192.687 157.75 193.982 157.625C195.505 157.466 196.732 157.318 197.664 157.182C198.596 157.034 199.272 156.818 199.692 156.534C200.113 156.25 200.323 155.83 200.323 155.273V155.17C200.323 154.091 199.982 153.256 199.3 152.665C198.63 152.074 197.675 151.778 196.437 151.778C195.13 151.778 194.09 152.068 193.317 152.648C192.545 153.216 192.033 153.932 191.783 154.795L185.067 154.25C185.408 152.659 186.079 151.284 187.079 150.125C188.079 148.955 189.369 148.057 190.948 147.432C192.539 146.795 194.38 146.477 196.471 146.477C197.925 146.477 199.317 146.648 200.647 146.989C201.988 147.33 203.175 147.858 204.21 148.574C205.255 149.29 206.079 150.21 206.681 151.335C207.283 152.449 207.585 153.784 207.585 155.341V173H200.698V169.369H200.494C200.073 170.188 199.511 170.909 198.806 171.534C198.102 172.148 197.255 172.631 196.266 172.983C195.278 173.324 194.136 173.494 192.84 173.494ZM194.92 168.483C195.988 168.483 196.931 168.273 197.749 167.852C198.567 167.42 199.21 166.841 199.675 166.114C200.141 165.386 200.374 164.562 200.374 163.642V160.864C200.147 161.011 199.835 161.148 199.437 161.273C199.05 161.386 198.613 161.494 198.124 161.597C197.636 161.687 197.147 161.773 196.658 161.852C196.17 161.92 195.727 161.983 195.329 162.04C194.477 162.165 193.732 162.364 193.096 162.636C192.46 162.909 191.965 163.278 191.613 163.744C191.261 164.199 191.085 164.767 191.085 165.449C191.085 166.438 191.442 167.193 192.158 167.716C192.886 168.227 193.806 168.483 194.92 168.483ZM213.218 173V146.818H220.258V151.386H220.531C221.008 149.761 221.809 148.534 222.934 147.705C224.059 146.864 225.354 146.443 226.82 146.443C227.184 146.443 227.576 146.466 227.996 146.511C228.417 146.557 228.786 146.619 229.104 146.699V153.142C228.763 153.04 228.292 152.949 227.69 152.869C227.087 152.79 226.536 152.75 226.036 152.75C224.968 152.75 224.013 152.983 223.173 153.449C222.343 153.903 221.684 154.54 221.195 155.358C220.718 156.176 220.479 157.119 220.479 158.188V173H213.218ZM239.438 165.466L239.455 156.756H240.512L248.898 146.818H257.234L245.967 159.977H244.245L239.438 165.466ZM232.859 173V138.091H240.12V173H232.859ZM249.222 173L241.518 161.597L246.359 156.466L257.728 173H249.222Z" fill="#090E12"/>
<path d="M75.8029 767H71.8484L77.8739 749.545H82.6296L88.6467 767H84.6921L80.32 753.534H80.1836L75.8029 767ZM75.5558 760.139H84.8967V763.02H75.5558V760.139ZM94.31 749.545V767H90.6793V749.545H94.31ZM99.8008 767L96.2383 753.909H99.9116L101.94 762.705H102.059L104.173 753.909H107.778L109.926 762.653H110.037L112.031 753.909H115.696L112.142 767H108.298L106.048 758.767H105.886L103.636 767H99.8008ZM121.365 767.247C120.53 767.247 119.786 767.102 119.132 766.812C118.479 766.517 117.962 766.082 117.581 765.509C117.206 764.929 117.019 764.207 117.019 763.344C117.019 762.616 117.152 762.006 117.419 761.511C117.686 761.017 118.05 760.619 118.51 760.318C118.971 760.017 119.493 759.79 120.078 759.636C120.669 759.483 121.289 759.375 121.936 759.312C122.698 759.233 123.311 759.159 123.777 759.091C124.243 759.017 124.581 758.909 124.792 758.767C125.002 758.625 125.107 758.415 125.107 758.136V758.085C125.107 757.545 124.936 757.128 124.596 756.832C124.26 756.537 123.783 756.389 123.164 756.389C122.51 756.389 121.99 756.534 121.604 756.824C121.218 757.108 120.962 757.466 120.837 757.898L117.479 757.625C117.65 756.83 117.985 756.142 118.485 755.562C118.985 754.977 119.63 754.528 120.419 754.216C121.215 753.898 122.135 753.739 123.181 753.739C123.908 753.739 124.604 753.824 125.269 753.994C125.939 754.165 126.533 754.429 127.05 754.787C127.573 755.145 127.985 755.605 128.286 756.168C128.587 756.724 128.738 757.392 128.738 758.17V767H125.294V765.185H125.192C124.982 765.594 124.701 765.955 124.348 766.267C123.996 766.574 123.573 766.815 123.078 766.991C122.584 767.162 122.013 767.247 121.365 767.247ZM122.405 764.741C122.939 764.741 123.411 764.636 123.82 764.426C124.229 764.21 124.55 763.92 124.783 763.557C125.016 763.193 125.132 762.781 125.132 762.321V760.932C125.019 761.006 124.863 761.074 124.664 761.136C124.471 761.193 124.252 761.247 124.007 761.298C123.763 761.344 123.519 761.386 123.275 761.426C123.03 761.46 122.809 761.491 122.61 761.52C122.184 761.582 121.811 761.682 121.493 761.818C121.175 761.955 120.928 762.139 120.752 762.372C120.576 762.599 120.488 762.884 120.488 763.224C120.488 763.719 120.667 764.097 121.025 764.358C121.388 764.614 121.848 764.741 122.405 764.741ZM133.327 771.909C132.867 771.909 132.435 771.872 132.032 771.798C131.634 771.73 131.304 771.642 131.043 771.534L131.861 768.824C132.287 768.955 132.671 769.026 133.012 769.037C133.358 769.048 133.657 768.969 133.907 768.798C134.162 768.628 134.37 768.338 134.529 767.929L134.742 767.375L130.046 753.909H133.864L136.574 763.523H136.711L139.446 753.909H143.29L138.202 768.415C137.958 769.119 137.625 769.733 137.205 770.256C136.79 770.784 136.265 771.19 135.628 771.474C134.992 771.764 134.225 771.909 133.327 771.909ZM156.04 757.642L152.716 757.847C152.659 757.562 152.537 757.307 152.35 757.08C152.162 756.847 151.915 756.662 151.608 756.526C151.307 756.384 150.946 756.312 150.526 756.312C149.963 756.312 149.489 756.432 149.103 756.67C148.716 756.903 148.523 757.216 148.523 757.608C148.523 757.92 148.648 758.185 148.898 758.401C149.148 758.616 149.577 758.79 150.185 758.92L152.554 759.398C153.827 759.659 154.776 760.08 155.401 760.659C156.026 761.239 156.338 762 156.338 762.943C156.338 763.801 156.086 764.554 155.58 765.202C155.08 765.849 154.392 766.355 153.517 766.719C152.648 767.077 151.645 767.256 150.509 767.256C148.776 767.256 147.395 766.895 146.367 766.173C145.344 765.446 144.745 764.457 144.569 763.207L148.14 763.02C148.248 763.548 148.509 763.952 148.924 764.23C149.338 764.503 149.87 764.639 150.517 764.639C151.154 764.639 151.665 764.517 152.051 764.273C152.444 764.023 152.642 763.702 152.648 763.31C152.642 762.98 152.503 762.71 152.23 762.5C151.958 762.284 151.537 762.119 150.969 762.006L148.702 761.554C147.424 761.298 146.472 760.855 145.847 760.224C145.228 759.594 144.918 758.79 144.918 757.812C144.918 756.972 145.145 756.247 145.6 755.639C146.06 755.031 146.705 754.562 147.534 754.233C148.37 753.903 149.347 753.739 150.466 753.739C152.12 753.739 153.421 754.088 154.37 754.787C155.324 755.486 155.881 756.437 156.04 757.642ZM171.142 753.909V756.636H163.259V753.909H171.142ZM165.049 750.773H168.679V762.977C168.679 763.312 168.73 763.574 168.833 763.761C168.935 763.943 169.077 764.071 169.259 764.145C169.446 764.219 169.662 764.256 169.907 764.256C170.077 764.256 170.248 764.241 170.418 764.213C170.588 764.179 170.719 764.153 170.81 764.136L171.381 766.838C171.199 766.895 170.944 766.96 170.614 767.034C170.284 767.114 169.884 767.162 169.412 767.179C168.537 767.213 167.77 767.097 167.111 766.83C166.458 766.562 165.949 766.148 165.586 765.585C165.222 765.023 165.043 764.312 165.049 763.455V750.773ZM177.419 759.432V767H173.789V749.545H177.317V756.219H177.471C177.766 755.446 178.243 754.841 178.902 754.403C179.561 753.96 180.388 753.739 181.382 753.739C182.292 753.739 183.084 753.938 183.76 754.335C184.442 754.727 184.971 755.293 185.346 756.031C185.726 756.764 185.914 757.642 185.908 758.665V767H182.277V759.312C182.283 758.506 182.078 757.878 181.664 757.429C181.255 756.98 180.681 756.756 179.942 756.756C179.448 756.756 179.01 756.861 178.63 757.071C178.255 757.281 177.959 757.588 177.743 757.991C177.533 758.389 177.425 758.869 177.419 759.432ZM194.731 767.256C193.385 767.256 192.225 766.983 191.254 766.438C190.288 765.886 189.544 765.108 189.021 764.102C188.498 763.091 188.237 761.895 188.237 760.514C188.237 759.168 188.498 757.986 189.021 756.969C189.544 755.952 190.279 755.159 191.228 754.591C192.183 754.023 193.302 753.739 194.586 753.739C195.45 753.739 196.254 753.878 196.998 754.156C197.748 754.429 198.402 754.841 198.958 755.392C199.521 755.943 199.958 756.636 200.271 757.472C200.583 758.301 200.74 759.273 200.74 760.386V761.384H189.686V759.134H197.322C197.322 758.611 197.208 758.148 196.981 757.744C196.754 757.341 196.439 757.026 196.035 756.798C195.637 756.565 195.174 756.449 194.646 756.449C194.095 756.449 193.606 756.577 193.18 756.832C192.76 757.082 192.43 757.42 192.191 757.847C191.953 758.267 191.831 758.736 191.825 759.253V761.392C191.825 762.04 191.944 762.599 192.183 763.071C192.427 763.543 192.771 763.906 193.214 764.162C193.657 764.418 194.183 764.545 194.791 764.545C195.194 764.545 195.564 764.489 195.899 764.375C196.234 764.261 196.521 764.091 196.76 763.864C196.998 763.636 197.18 763.358 197.305 763.028L200.663 763.25C200.493 764.057 200.143 764.761 199.615 765.364C199.092 765.96 198.416 766.426 197.586 766.761C196.762 767.091 195.811 767.256 194.731 767.256ZM203.109 767V753.909H206.629V756.193H206.765C207.004 755.381 207.404 754.767 207.967 754.352C208.529 753.932 209.177 753.722 209.91 753.722C210.092 753.722 210.288 753.733 210.498 753.756C210.708 753.778 210.893 753.81 211.052 753.849V757.071C210.882 757.02 210.646 756.974 210.345 756.935C210.044 756.895 209.768 756.875 209.518 756.875C208.984 756.875 208.507 756.991 208.086 757.224C207.672 757.452 207.342 757.77 207.098 758.179C206.859 758.588 206.74 759.06 206.74 759.594V767H203.109ZM218.286 767.256C216.939 767.256 215.78 766.983 214.809 766.438C213.843 765.886 213.098 765.108 212.576 764.102C212.053 763.091 211.792 761.895 211.792 760.514C211.792 759.168 212.053 757.986 212.576 756.969C213.098 755.952 213.834 755.159 214.783 754.591C215.738 754.023 216.857 753.739 218.141 753.739C219.005 753.739 219.809 753.878 220.553 754.156C221.303 754.429 221.956 754.841 222.513 755.392C223.076 755.943 223.513 756.636 223.826 757.472C224.138 758.301 224.294 759.273 224.294 760.386V761.384H213.24V759.134H220.877C220.877 758.611 220.763 758.148 220.536 757.744C220.309 757.341 219.993 757.026 219.59 756.798C219.192 756.565 218.729 756.449 218.201 756.449C217.65 756.449 217.161 756.577 216.735 756.832C216.314 757.082 215.985 757.42 215.746 757.847C215.507 758.267 215.385 758.736 215.38 759.253V761.392C215.38 762.04 215.499 762.599 215.738 763.071C215.982 763.543 216.326 763.906 216.769 764.162C217.212 764.418 217.738 764.545 218.346 764.545C218.749 764.545 219.118 764.489 219.453 764.375C219.789 764.261 220.076 764.091 220.314 763.864C220.553 763.636 220.735 763.358 220.86 763.028L224.218 763.25C224.047 764.057 223.698 764.761 223.169 765.364C222.647 765.96 221.971 766.426 221.141 766.761C220.317 767.091 219.365 767.256 218.286 767.256ZM239.258 753.909V756.636H231.179V753.909H239.258ZM233.028 767V752.963C233.028 752.014 233.213 751.227 233.582 750.602C233.957 749.977 234.468 749.509 235.116 749.196C235.764 748.884 236.5 748.727 237.324 748.727C237.88 748.727 238.389 748.77 238.849 748.855C239.315 748.94 239.662 749.017 239.889 749.085L239.241 751.812C239.099 751.767 238.923 751.724 238.713 751.685C238.508 751.645 238.298 751.625 238.082 751.625C237.548 751.625 237.176 751.75 236.966 752C236.755 752.244 236.65 752.588 236.65 753.031V767H233.028ZM246.922 767.256C245.598 767.256 244.453 766.974 243.488 766.412C242.527 765.844 241.786 765.054 241.263 764.043C240.74 763.026 240.479 761.847 240.479 760.506C240.479 759.153 240.74 757.972 241.263 756.96C241.786 755.943 242.527 755.153 243.488 754.591C244.453 754.023 245.598 753.739 246.922 753.739C248.246 753.739 249.388 754.023 250.348 754.591C251.314 755.153 252.059 755.943 252.581 756.96C253.104 757.972 253.365 759.153 253.365 760.506C253.365 761.847 253.104 763.026 252.581 764.043C252.059 765.054 251.314 765.844 250.348 766.412C249.388 766.974 248.246 767.256 246.922 767.256ZM246.939 764.443C247.542 764.443 248.044 764.273 248.448 763.932C248.851 763.585 249.155 763.114 249.36 762.517C249.57 761.92 249.675 761.241 249.675 760.48C249.675 759.719 249.57 759.04 249.36 758.443C249.155 757.847 248.851 757.375 248.448 757.028C248.044 756.682 247.542 756.509 246.939 756.509C246.331 756.509 245.82 756.682 245.405 757.028C244.996 757.375 244.686 757.847 244.476 758.443C244.272 759.04 244.169 759.719 244.169 760.48C244.169 761.241 244.272 761.92 244.476 762.517C244.686 763.114 244.996 763.585 245.405 763.932C245.82 764.273 246.331 764.443 246.939 764.443ZM255.726 767V753.909H259.246V756.193H259.382C259.621 755.381 260.022 754.767 260.584 754.352C261.147 753.932 261.794 753.722 262.527 753.722C262.709 753.722 262.905 753.733 263.115 753.756C263.326 753.778 263.51 753.81 263.669 753.849V757.071C263.499 757.02 263.263 756.974 262.962 756.935C262.661 756.895 262.385 756.875 262.135 756.875C261.601 756.875 261.124 756.991 260.703 757.224C260.289 757.452 259.959 757.77 259.715 758.179C259.476 758.588 259.357 759.06 259.357 759.594V767H255.726ZM273.343 771.909C272.882 771.909 272.451 771.872 272.047 771.798C271.65 771.73 271.32 771.642 271.059 771.534L271.877 768.824C272.303 768.955 272.686 769.026 273.027 769.037C273.374 769.048 273.672 768.969 273.922 768.798C274.178 768.628 274.385 768.338 274.544 767.929L274.757 767.375L270.061 753.909H273.88L276.59 763.523H276.726L279.462 753.909H283.306L278.218 768.415C277.973 769.119 277.641 769.733 277.221 770.256C276.806 770.784 276.28 771.19 275.644 771.474C275.007 771.764 274.24 771.909 273.343 771.909ZM290.657 767.256C289.333 767.256 288.188 766.974 287.222 766.412C286.262 765.844 285.52 765.054 284.998 764.043C284.475 763.026 284.213 761.847 284.213 760.506C284.213 759.153 284.475 757.972 284.998 756.96C285.52 755.943 286.262 755.153 287.222 754.591C288.188 754.023 289.333 753.739 290.657 753.739C291.98 753.739 293.123 754.023 294.083 754.591C295.049 755.153 295.793 755.943 296.316 756.96C296.838 757.972 297.1 759.153 297.1 760.506C297.1 761.847 296.838 763.026 296.316 764.043C295.793 765.054 295.049 765.844 294.083 766.412C293.123 766.974 291.98 767.256 290.657 767.256ZM290.674 764.443C291.276 764.443 291.779 764.273 292.182 763.932C292.586 763.585 292.89 763.114 293.094 762.517C293.304 761.92 293.409 761.241 293.409 760.48C293.409 759.719 293.304 759.04 293.094 758.443C292.89 757.847 292.586 757.375 292.182 757.028C291.779 756.682 291.276 756.509 290.674 756.509C290.066 756.509 289.554 756.682 289.14 757.028C288.73 757.375 288.421 757.847 288.211 758.443C288.006 759.04 287.904 759.719 287.904 760.48C287.904 761.241 288.006 761.92 288.211 762.517C288.421 763.114 288.73 763.585 289.14 763.932C289.554 764.273 290.066 764.443 290.674 764.443ZM307.855 761.426V753.909H311.486V767H308V764.622H307.864C307.569 765.389 307.077 766.006 306.39 766.472C305.708 766.937 304.875 767.17 303.892 767.17C303.017 767.17 302.248 766.972 301.583 766.574C300.918 766.176 300.398 765.611 300.023 764.878C299.654 764.145 299.466 763.267 299.461 762.244V753.909H303.091V761.597C303.097 762.369 303.304 762.98 303.713 763.429C304.123 763.878 304.671 764.102 305.358 764.102C305.796 764.102 306.205 764.003 306.586 763.804C306.966 763.599 307.273 763.298 307.506 762.901C307.745 762.503 307.861 762.011 307.855 761.426ZM318.728 749.545L318.396 761.767H315.277L314.936 749.545H318.728ZM316.836 767.222C316.274 767.222 315.791 767.023 315.387 766.625C314.984 766.222 314.785 765.739 314.791 765.176C314.785 764.619 314.984 764.142 315.387 763.744C315.791 763.347 316.274 763.148 316.836 763.148C317.376 763.148 317.85 763.347 318.26 763.744C318.669 764.142 318.876 764.619 318.882 765.176C318.876 765.551 318.777 765.895 318.583 766.207C318.396 766.514 318.149 766.761 317.842 766.949C317.535 767.131 317.2 767.222 316.836 767.222Z" fill="#090E12"/>
<path d="M176.221 498.497C176.465 488.611 184.693 480.759 194.572 481.003C204.452 481.243 212.291 489.489 212.047 499.37C211.807 509.261 203.57 517.113 193.695 516.869C183.816 516.624 175.972 508.382 176.216 498.492L176.221 498.497Z" fill="white"/>
<path d="M315.213 465.069L310.615 464.956C309.79 464.937 309.133 464.247 309.152 463.42L309.579 445.926C309.607 444.687 311.047 444.015 312.018 444.79C314.978 447.147 317.019 452.473 316.873 458.447L316.747 463.608C316.728 464.435 316.038 465.092 315.213 465.073V465.069Z" fill="white"/>
<path d="M150.669 534.513C144.762 533.437 136.028 532.62 125.806 534.513C121.068 535.391 116.926 536.682 113.459 538.04C112.661 538.35 111.812 537.716 111.878 536.861C112.943 522.997 114.003 509.134 115.068 495.275L121.654 333.887L122.475 299.27C122.475 299.233 122.475 299.195 122.475 299.158C122.212 295.744 121.893 285.581 128.625 276.221C129.409 275.136 133.373 269.759 140.822 265.889C146.888 262.738 151.912 262.325 164.746 261.662C185.894 260.568 194.225 260.413 194.225 260.413C209.621 260.127 217.319 260 224.121 260C241.577 260 254.496 261.273 262.879 263.818C271.262 266.363 278.683 270.628 285.148 276.616C291.612 282.599 296.697 290 300.408 298.801C304.118 307.606 305.976 317.309 305.976 327.899C305.976 345.233 301.576 360.815 292.785 374.646C283.989 388.472 271.994 398.794 256.809 405.604C241.619 412.414 224.68 415.818 205.995 415.818C196.388 415.818 185.739 414.781 174.058 412.705C173.477 412.602 173.054 412.076 173.092 411.484C173.294 408.394 173.209 403.918 171.788 398.794C170.653 394.704 169.006 391.416 167.505 388.979C166.975 388.12 167.707 387.04 168.696 387.218C178.473 388.951 188.019 389.815 197.335 389.815C207.229 389.815 216.677 388.679 225.679 386.41C234.681 384.142 242.407 380.357 248.872 375.059C255.331 369.767 260.346 363.126 263.921 355.142C267.495 347.163 269.283 338.701 269.283 329.759C269.283 322.743 267.974 316.243 265.365 310.255C262.753 304.272 259.145 299.524 254.543 296.016C249.937 292.508 244.715 290.136 238.875 288.896C233.03 287.656 224.548 287.037 213.416 287.037H196.102L174.457 287.45L159.497 287.257C158.873 287.248 158.353 287.741 158.315 288.366C156.706 318.056 155.557 345.064 154.886 369.381L152.015 454.206C151.536 475.739 151.058 497.271 150.579 518.804" fill="white"/>
<path d="M305.329 446.255L304.944 461.988C304.907 463.552 303.612 464.787 302.05 464.749L297.978 464.651L264.015 463.815L208.505 462.453C206.183 462.396 204.916 459.715 206.347 457.878L218.413 442.437C218.961 441.733 219.815 441.329 220.706 441.352L302.575 443.358C304.137 443.395 305.371 444.691 305.334 446.255H305.329Z" fill="white"/>
<path d="M305.409 504.278C303.973 504.949 302.322 503.818 302.411 502.235C302.425 502.019 302.43 501.803 302.434 501.582C302.735 489.358 293.043 479.167 280.823 478.866C268.612 478.57 258.427 488.273 258.132 500.502C258.113 501.258 258.132 502.01 258.188 502.747C258.287 503.996 257.259 505.048 256.007 505.015L218.178 504.085C216.925 504.053 215.954 502.954 216.114 501.714C216.208 500.976 216.264 500.234 216.283 499.478C216.583 487.249 206.887 477.063 194.671 476.758C182.455 476.457 172.276 486.164 171.976 498.393C171.976 498.408 171.976 498.417 171.976 498.431C171.938 500.108 170.118 501.122 168.701 500.225C163.367 496.853 159.882 490.851 160.046 484.093C160.295 473.855 168.818 465.735 179.04 465.989L263.902 468.065L295.839 468.849L314.462 469.305C315.64 469.333 316.569 470.314 316.541 471.493L316.198 485.512L316.184 486.08L316.123 488.484H316.1C315.715 495.519 311.423 501.474 305.395 504.283L305.409 504.278Z" fill="white"/>
<path d="M280.143 519.597C270.263 519.358 262.424 511.111 262.664 501.221C262.903 491.33 271.14 483.487 281.02 483.727C290.899 483.966 298.738 492.213 298.494 502.099C298.25 511.985 290.022 519.841 280.143 519.593V519.597Z" fill="white"/>
<path d="M237.43 472.052H225.961C224.536 472.052 223.38 473.208 223.38 474.635C223.38 476.061 224.536 477.218 225.961 477.218H237.43C238.855 477.218 240.01 476.061 240.01 474.635C240.01 473.208 238.855 472.052 237.43 472.052Z" fill="#FFB627"/>
<path d="M270.798 555.106C270.967 554.904 279.664 543.206 290.913 534.47C289.586 533.785 287.841 533.245 285.603 533.245C283.107 533.245 280.325 533.912 277.328 535.227C271.684 537.701 267.561 542.581 262.34 548.757C259.375 552.26 256.016 556.233 251.893 560.295C246.409 565.71 238.27 570.604 227.715 574.844C224.361 576.197 220.791 577.47 217.043 578.663C217.113 578.667 217.183 578.677 217.254 578.686C220.767 579.095 224.3 579.461 227.785 579.79C227.954 579.804 228.123 579.823 228.287 579.837C233.157 578.23 236.989 576.765 239.64 575.493C247.338 571.792 260.327 563.033 270.798 555.111V555.106Z" fill="white"/>
<path d="M304.339 549.729C311.938 543.464 320.307 536.579 328.976 532.93C323.877 529.629 318.332 529.258 311.291 531.568C304.606 533.761 300.534 537.044 282.399 552.18C271.45 561.319 252.066 574.953 241.755 579.907C241.192 580.179 240.582 580.461 239.926 580.743C240.564 580.781 241.188 580.823 241.802 580.856C242.299 580.884 242.811 580.917 243.299 580.945C244.617 581.015 245.897 581.076 247.103 581.123C248.44 581.17 249.805 581.18 251.198 581.147C251.649 581.133 252.118 581.1 252.573 581.081C253.525 581.044 254.482 581.011 255.463 580.936C256.021 580.893 256.602 580.823 257.165 580.767C258.075 580.677 258.976 580.607 259.905 580.489C260.515 580.414 261.157 580.306 261.781 580.217C262.612 580.1 263.442 579.987 264.286 579.846C273.472 574.056 292.607 559.159 299.31 553.824C300.924 552.537 302.599 551.156 304.33 549.733L304.339 549.729Z" fill="white"/>
<path d="M307.454 553.519C305.704 554.96 304.006 556.36 302.369 557.661C302.186 557.806 288.568 568.636 277.027 577.014C277.454 576.901 277.886 576.784 278.313 576.667C278.585 576.591 278.852 576.516 279.12 576.437C281.254 575.826 283.346 575.183 285.382 574.52C285.532 574.469 285.678 574.422 285.828 574.37C286.715 574.079 287.587 573.783 288.446 573.487C288.624 573.426 288.797 573.365 288.971 573.309C289.886 572.989 290.791 572.665 291.678 572.346C291.734 572.327 291.79 572.308 291.842 572.29C293.817 571.571 295.712 570.848 297.504 570.139C297.56 570.115 297.617 570.092 297.673 570.068C298.503 569.74 299.31 569.416 300.094 569.096C300.164 569.068 300.234 569.035 300.305 569.007C302.791 567.993 305.029 567.035 306.957 566.194C307.046 566.156 307.13 566.119 307.215 566.081C307.777 565.837 308.308 565.602 308.814 565.377C308.88 565.349 308.95 565.316 309.016 565.288C309.56 565.048 310.071 564.818 310.541 564.611C315.077 562.592 320.115 558.764 325.941 554.331C332.621 549.25 340.09 543.572 348.627 539.312C346.207 536.739 342.599 535.428 337.824 535.428C327.752 536.781 316.967 545.671 307.449 553.514L307.454 553.519Z" fill="white"/>
<path d="M357.869 541.374C356.574 541.374 355.308 541.637 354.116 542.154C344.621 546.286 336.271 552.636 328.906 558.238C322.836 562.855 317.591 566.847 312.53 569.096C304.362 572.726 285.227 581.231 265.586 584.613C259.886 585.575 254.506 586.064 249.594 586.064C248.703 586.064 247.811 586.05 246.92 586.017C241.652 585.82 235.23 585.388 228.343 584.763C220.401 584.04 212.145 583.072 204.461 581.964C172.867 577.423 169.855 573.271 168.86 571.905C167.425 569.927 167.857 568.364 168.241 567.598C169.428 565.259 172.684 564.945 175.714 564.945C182.676 564.945 193.343 567.063 193.794 567.157L194.056 567.227C194.145 567.251 203.077 570.068 212.516 570.068C217.394 570.068 221.532 569.326 224.82 567.861C225.632 567.499 226.429 567.072 227.189 566.588C230.06 564.738 233.344 561.84 232.608 558.591C232.063 556.21 229.591 554.491 228.653 554.373C227.03 554.171 221.757 552.955 212.577 550.823C202.449 548.475 189.839 545.554 181.761 544.037C179.143 543.548 176.343 542.933 173.378 542.29C163.996 540.237 153.356 537.917 141.826 537.917C136.459 537.917 131.473 538.411 126.575 539.43L123.493 540.068C102.866 544.309 83.3796 548.32 68.1805 574.403C65.9429 578.245 64.2212 582.293 62.4011 586.581C59.4176 593.597 56.3308 600.853 50.7719 607.296C47.521 611.062 42.2154 615.721 36.6001 620.652C29.3853 626.983 18.5817 636.474 18 640.179C19.792 641.983 31.2805 647.783 52.198 645.106C106.525 638.16 117.929 622.629 163.499 622.667C167.936 622.667 172.604 622.892 177.384 622.892C212.685 622.892 299.46 618.379 342.749 576.606C350.494 569.129 365.253 552.772 370 547.479C367.687 545.253 362.935 541.365 357.85 541.365L357.869 541.374Z" fill="white"/>
</svg>
